<svg width="104" height="32" viewBox="0 0 104 32" fill="none" xmlns="http://www.w3.org/2000/svg">
<path d="M25.5306 24.4693L20.8365 19.7762C22.1971 18.1428 22.8755 16.0478 22.7307 13.9269C22.5859 11.806 21.629 9.82265 20.0591 8.38932C18.4892 6.95599 16.4271 6.18308 14.3019 6.23138C12.1766 6.27968 10.1518 7.14547 8.64864 8.64864C7.14547 10.1518 6.27968 12.1766 6.23138 14.3019C6.18308 16.4271 6.95599 18.4892 8.38932 20.0591C9.82265 21.629 11.806 22.5859 13.9269 22.7307C16.0478 22.8755 18.1428 22.1971 19.7762 20.8365L24.4693 25.5306C24.539 25.6003 24.6218 25.6556 24.7128 25.6933C24.8038 25.731 24.9014 25.7504 25 25.7504C25.0985 25.7504 25.1961 25.731 25.2871 25.6933C25.3782 25.6556 25.4609 25.6003 25.5306 25.5306C25.6003 25.4609 25.6556 25.3782 25.6933 25.2871C25.731 25.1961 25.7504 25.0985 25.7504 25C25.7504 24.9014 25.731 24.8038 25.6933 24.7128C25.6556 24.6218 25.6003 24.539 25.5306 24.4693ZM7.74997 14.5C7.74997 13.1649 8.14585 11.8599 8.88755 10.7499C9.62925 9.63984 10.6835 8.77467 11.9169 8.26378C13.1503 7.75289 14.5075 7.61922 15.8168 7.87967C17.1262 8.14012 18.3289 8.78299 19.2729 9.727C20.2169 10.671 20.8598 11.8737 21.1203 13.1831C21.3807 14.4925 21.2471 15.8497 20.7362 17.0831C20.2253 18.3165 19.3601 19.3707 18.2501 20.1124C17.14 20.8541 15.835 21.25 14.5 21.25C12.7104 21.248 10.9946 20.5362 9.72919 19.2708C8.46375 18.0053 7.75196 16.2896 7.74997 14.5Z" fill="#EF5F4C"/>
<path d="M38.688 12.032V15.76H42.752V16.96H38.688V20.8H43.232V22H37.232V10.832H43.232V12.032H38.688ZM50.0111 22L47.9311 18.736L45.9311 22H44.4111L47.2431 17.648L44.4111 13.232H46.0591L48.1391 16.48L50.1231 13.232H51.6431L48.8271 17.568L51.6591 22H50.0111ZM54.5474 14.848C54.8354 14.3467 55.262 13.9307 55.8274 13.6C56.4034 13.2587 57.07 13.088 57.8274 13.088C58.606 13.088 59.31 13.2747 59.9394 13.648C60.5794 14.0213 61.0807 14.5493 61.4434 15.232C61.806 15.904 61.9874 16.688 61.9874 17.584C61.9874 18.4693 61.806 19.2587 61.4434 19.952C61.0807 20.6453 60.5794 21.184 59.9394 21.568C59.31 21.952 58.606 22.144 57.8274 22.144C57.0807 22.144 56.4194 21.9787 55.8434 21.648C55.278 21.3067 54.846 20.8853 54.5474 20.384V26.16H53.0914V13.232H54.5474V14.848ZM60.4994 17.584C60.4994 16.9227 60.366 16.3467 60.0994 15.856C59.8327 15.3653 59.47 14.992 59.0114 14.736C58.5634 14.48 58.0674 14.352 57.5234 14.352C56.99 14.352 56.494 14.4853 56.0354 14.752C55.5874 15.008 55.2247 15.3867 54.9474 15.888C54.6807 16.3787 54.5474 16.9493 54.5474 17.6C54.5474 18.2613 54.6807 18.8427 54.9474 19.344C55.2247 19.8347 55.5874 20.2133 56.0354 20.48C56.494 20.736 56.99 20.864 57.5234 20.864C58.0674 20.864 58.5634 20.736 59.0114 20.48C59.47 20.2133 59.8327 19.8347 60.0994 19.344C60.366 18.8427 60.4994 18.256 60.4994 17.584ZM65.3599 10.16V22H63.9039V10.16H65.3599ZM71.6654 22.144C70.844 22.144 70.0974 21.9573 69.4254 21.584C68.764 21.2107 68.2414 20.6827 67.8574 20C67.484 19.3067 67.2974 18.5067 67.2974 17.6C67.2974 16.704 67.4894 15.9147 67.8734 15.232C68.268 14.5387 68.8014 14.0107 69.4734 13.648C70.1454 13.2747 70.8974 13.088 71.7294 13.088C72.5614 13.088 73.3134 13.2747 73.9854 13.648C74.6574 14.0107 75.1854 14.5333 75.5694 15.216C75.964 15.8987 76.1614 16.6933 76.1614 17.6C76.1614 18.5067 75.9587 19.3067 75.5534 20C75.1587 20.6827 74.62 21.2107 73.9374 21.584C73.2547 21.9573 72.4974 22.144 71.6654 22.144ZM71.6654 20.864C72.188 20.864 72.6787 20.7413 73.1374 20.496C73.596 20.2507 73.964 19.8827 74.2414 19.392C74.5294 18.9013 74.6734 18.304 74.6734 17.6C74.6734 16.896 74.5347 16.2987 74.2574 15.808C73.98 15.3173 73.6174 14.9547 73.1694 14.72C72.7214 14.4747 72.236 14.352 71.7134 14.352C71.18 14.352 70.6894 14.4747 70.2414 14.72C69.804 14.9547 69.452 15.3173 69.1854 15.808C68.9187 16.2987 68.7854 16.896 68.7854 17.6C68.7854 18.3147 68.9134 18.9173 69.1694 19.408C69.436 19.8987 69.788 20.2667 70.2254 20.512C70.6627 20.7467 71.1427 20.864 71.6654 20.864ZM79.5318 14.656C79.7878 14.1547 80.1504 13.7653 80.6198 13.488C81.0998 13.2107 81.6811 13.072 82.3638 13.072V14.576H81.9798C80.3478 14.576 79.5318 15.4613 79.5318 17.232V22H78.0758V13.232H79.5318V14.656ZM83.5005 17.584C83.5005 16.688 83.6818 15.904 84.0445 15.232C84.4072 14.5493 84.9032 14.0213 85.5325 13.648C86.1725 13.2747 86.8818 13.088 87.6605 13.088C88.4285 13.088 89.0952 13.2533 89.6605 13.584C90.2258 13.9147 90.6472 14.3307 90.9245 14.832V13.232H92.3965V22H90.9245V20.368C90.6365 20.88 90.2045 21.3067 89.6285 21.648C89.0632 21.9787 88.4018 22.144 87.6445 22.144C86.8658 22.144 86.1618 21.952 85.5325 21.568C84.9032 21.184 84.4072 20.6453 84.0445 19.952C83.6818 19.2587 83.5005 18.4693 83.5005 17.584ZM90.9245 17.6C90.9245 16.9387 90.7912 16.3627 90.5245 15.872C90.2578 15.3813 89.8952 15.008 89.4365 14.752C88.9885 14.4853 88.4925 14.352 87.9485 14.352C87.4045 14.352 86.9085 14.48 86.4605 14.736C86.0125 14.992 85.6552 15.3653 85.3885 15.856C85.1218 16.3467 84.9885 16.9227 84.9885 17.584C84.9885 18.256 85.1218 18.8427 85.3885 19.344C85.6552 19.8347 86.0125 20.2133 86.4605 20.48C86.9085 20.736 87.4045 20.864 87.9485 20.864C88.4925 20.864 88.9885 20.736 89.4365 20.48C89.8952 20.2133 90.2578 19.8347 90.5245 19.344C90.7912 18.8427 90.9245 18.2613 90.9245 17.6ZM96.313 14.656C96.569 14.1547 96.9317 13.7653 97.401 13.488C97.881 13.2107 98.4623 13.072 99.145 13.072V14.576H98.761C97.129 14.576 96.313 15.4613 96.313 17.232V22H94.857V13.232H96.313V14.656Z" fill="#EF5F4C"/>
<path d="M36 23.6H99.593V24.4H36V23.6Z" fill="#EF5F4C"/>
</svg>
