<svg width="32" height="32" viewBox="0 0 32 32" fill="none" xmlns="http://www.w3.org/2000/svg">
<mask id="mask0_3212_1779" style="mask-type:luminance" maskUnits="userSpaceOnUse" x="0" y="0" width="32" height="32">
<path d="M32 31.7582L32 0.241699L0 0.241698L-1.37763e-06 31.7582L32 31.7582Z" fill="white"/>
</mask>
<g mask="url(#mask0_3212_1779)">
<path d="M26.5198 17.6078L27.7354 18.8234C30.1225 21.2105 30.1816 25.0968 27.8082 27.4977C26.9069 28.4074 25.7432 29.012 24.4807 29.2264C23.2182 29.4409 21.9202 29.2544 20.7691 28.6933C20.2192 28.4241 19.599 28.3335 18.995 28.4338C18.3911 28.5343 17.8336 28.8208 17.4005 29.2535C18.1979 30.0491 19.1443 30.6796 20.1855 31.1093C21.2267 31.539 22.3424 31.7594 23.4688 31.7578C24.5952 31.7561 25.7102 31.5328 26.7502 31.1001C27.7902 30.6674 28.7348 30.0341 29.5299 29.2363C32.8682 25.8791 32.8017 20.4298 29.4541 17.082L17.8677 5.49525L18.8202 4.54272C21.2478 2.11511 25.216 2.09963 27.6005 4.57007C28.4804 5.48452 29.0548 6.64954 29.2444 7.90434C29.434 9.15914 29.2294 10.4418 28.659 11.5754C28.3938 12.0929 28.299 12.6808 28.388 13.2554C28.477 13.8299 28.7452 14.3616 29.1545 14.7746L29.1839 14.8041C29.193 14.8133 29.2039 14.8206 29.2158 14.8256C29.2278 14.8306 29.2406 14.8331 29.2536 14.8331C29.2665 14.8331 29.2794 14.8306 29.2913 14.8256C29.3033 14.8206 29.3141 14.8133 29.3233 14.8041C30.878 13.2094 31.7512 11.0723 31.7583 8.84515C31.7654 6.61799 30.9057 4.47543 29.3611 2.87085C26.0244 -0.58557 20.4758 -0.573219 17.0786 2.82396L5.49535 14.4073L4.2649 13.1768C1.87777 10.7897 1.81869 6.90327 4.19206 4.50255C5.09332 3.59282 6.25703 2.98827 7.51953 2.7738C8.78202 2.55935 10.08 2.74573 11.2312 3.30679C11.7811 3.57597 12.4013 3.66669 13.0051 3.5663C13.6091 3.46588 14.1666 3.17936 14.5998 2.74675C13.8023 1.95119 12.856 1.32055 11.8148 0.890839C10.7735 0.46113 9.65796 0.240782 8.53146 0.242378C7.40511 0.243975 6.29001 0.467485 5.2501 0.900145C4.21003 1.3328 3.26547 1.96613 2.47033 2.76394C-0.868077 6.12095 -0.801804 11.5704 2.54598 14.9182L14.1479 26.52L13.1918 27.4761C10.8046 29.8632 6.91837 29.9223 4.51764 27.549C3.60778 26.6477 3.00334 25.484 2.78873 24.2215C2.57428 22.959 2.76075 21.661 3.32189 20.5098C3.59121 19.9598 3.68203 19.3392 3.58136 18.7351C3.48086 18.131 3.19404 17.5733 2.76106 17.1401C1.96546 17.9376 1.33476 18.8839 0.90507 19.9251C0.475381 20.9664 0.254989 22.0819 0.256551 23.2085C0.258271 24.3348 0.481789 25.4499 0.914449 26.4898C1.34711 27.5299 1.98047 28.4744 2.77826 29.2696C6.13527 32.608 11.5848 32.5416 14.9324 29.1939L26.5198 17.6078ZM7.22582 16.137L16.1374 7.22542L24.7893 15.8775L15.8777 24.789L7.22582 16.137Z" fill="black"/>
</g>
</svg>
