<svg width="32" height="32" viewBox="0 0 32 32" fill="none" xmlns="http://www.w3.org/2000/svg">
<mask id="mask0_3212_1777" style="mask-type:luminance" maskUnits="userSpaceOnUse" x="0" y="0" width="32" height="32">
<path d="M31.7582 0H0.241699V32H31.7582V0Z" fill="white"/>
</mask>
<g mask="url(#mask0_3212_1777)">
<path d="M17.6079 5.4803L18.8235 4.2647C21.2106 1.87757 25.0969 1.81849 27.4977 4.19186C28.4075 5.09317 29.0121 6.25682 29.2265 7.51934C29.441 8.78188 29.2545 10.0799 28.6933 11.231C28.4242 11.7809 28.3335 12.4011 28.4339 13.005C28.5344 13.6089 28.8209 14.1664 29.2535 14.5996C30.0491 13.8022 30.6797 12.8558 31.1094 11.8146C31.5391 10.7734 31.7595 9.65769 31.7579 8.53129C31.7562 7.40491 31.5328 6.28986 31.1002 5.24987C30.6675 4.20986 30.0341 3.2653 29.2364 2.47013C25.8792 -0.868117 20.4298 -0.801687 17.0821 2.54594L5.49531 14.1324L4.54278 13.1798C2.11517 10.7522 2.0997 6.78406 4.57013 4.39959C5.48458 3.51969 6.6496 2.94529 7.9044 2.75569C9.1592 2.56609 10.4419 2.77063 11.5755 3.34108C12.0929 3.60622 12.6809 3.70107 13.2554 3.61208C13.83 3.5231 14.3617 3.25483 14.7746 2.84558L14.8042 2.8162C14.8134 2.80707 14.8207 2.79621 14.8257 2.78423C14.8306 2.77228 14.8332 2.75944 14.8332 2.74648C14.8332 2.73353 14.8306 2.72069 14.8257 2.70874C14.8207 2.69678 14.8134 2.68592 14.8042 2.67677C13.2094 1.12208 11.0724 0.248817 8.84521 0.241756C6.61805 0.234698 4.47549 1.0944 2.87092 2.63895C-0.585509 5.97564 -0.573157 11.5242 2.82402 14.9214L14.4073 26.5047L13.1769 27.7352C10.7898 30.1223 6.90333 30.1814 4.50261 27.808C3.59288 26.9067 2.98833 25.743 2.77386 24.4805C2.55941 23.218 2.74579 21.9201 3.30686 20.7689C3.57603 20.219 3.66675 19.5987 3.56636 18.9949C3.46595 18.391 3.17942 17.8334 2.74681 17.4003C1.95125 18.1978 1.32061 19.1441 0.8909 20.1852C0.461192 21.2265 0.240844 22.3421 0.24244 23.4686C0.244037 24.595 0.467547 25.71 0.900207 26.75C1.33287 27.79 1.96619 28.7346 2.764 29.5297C6.12101 32.8681 11.5705 32.8019 14.9183 29.4541L26.52 17.8522L27.4762 18.8083C29.8633 21.1954 29.9224 25.0817 27.549 27.4824C26.6477 28.3923 25.484 28.9967 24.2215 29.2113C22.9591 29.4258 21.6611 29.2393 20.5099 28.6782C19.9598 28.4088 19.3393 28.318 18.7352 28.4187C18.131 28.5192 17.5733 28.806 17.1402 29.239C17.9377 30.0346 18.884 30.6653 19.9251 31.095C20.9664 31.5247 22.082 31.7451 23.2085 31.7435C24.3349 31.7418 25.45 31.5183 26.4899 31.0856C27.5299 30.653 28.4745 30.0196 29.2696 29.2218C32.6081 25.8648 32.5416 20.4153 29.194 17.0677L17.6079 5.4803ZM16.137 24.7742L7.22548 15.8627L15.8776 7.21078L24.7891 16.1223L16.137 24.7742Z" fill="black"/>
</g>
</svg>
