<svg width="52" height="48" viewBox="0 0 52 48" fill="none" xmlns="http://www.w3.org/2000/svg">
<g filter="url(#filter0_d_3212_1746)">
<path d="M18 18V16.4848C18 13.2715 20.6863 10.6666 24 10.6666C27.3137 10.6666 30 13.2715 30 16.4848V18" stroke="black" stroke-width="2"/>
<path d="M11.6046 32.8165C10.9295 31.0705 11.5752 28.8192 12.8667 24.3164L14.6666 18H33.3333L35.1331 24.3164C36.4246 28.8192 37.0703 31.0705 36.3953 32.8165C35.9818 33.8857 35.2477 34.8129 34.2859 35.4805C30.6486 38.0057 17.1925 37.8955 13.7139 35.4805C12.7522 34.8129 12.0181 33.8857 11.6046 32.8165Z" stroke="black" stroke-width="2"/>
<path d="M21.3333 22.6666H26.6666" stroke="black" stroke-width="2"/>
<rect x="28" width="20" height="20" rx="10" fill="#FFCD1E"/>
<path d="M39.1506 5.27273V14H37.8295V6.59375H37.7784L35.6903 7.95739V6.69602L37.8679 5.27273H39.1506Z" fill="black"/>
</g>
<defs>
<filter id="filter0_d_3212_1746" x="-4" y="0" width="56" height="56" filterUnits="userSpaceOnUse" color-interpolation-filters="sRGB">
<feFlood flood-opacity="0" result="BackgroundImageFix"/>
<feColorMatrix in="SourceAlpha" type="matrix" values="0 0 0 0 0 0 0 0 0 0 0 0 0 0 0 0 0 0 127 0" result="hardAlpha"/>
<feOffset dy="4"/>
<feGaussianBlur stdDeviation="2"/>
<feComposite in2="hardAlpha" operator="out"/>
<feColorMatrix type="matrix" values="0 0 0 0 0 0 0 0 0 0 0 0 0 0 0 0 0 0 0.25 0"/>
<feBlend mode="normal" in2="BackgroundImageFix" result="effect1_dropShadow_3212_1746"/>
<feBlend mode="normal" in="SourceGraphic" in2="effect1_dropShadow_3212_1746" result="shape"/>
</filter>
</defs>
</svg>
