<svg width="48" height="48" viewBox="0 0 48 48" fill="none" xmlns="http://www.w3.org/2000/svg">
<path d="M16.3097 20.414L15.7915 18.9903C14.6924 15.9707 16.3258 12.6042 19.4397 11.4708C22.5536 10.3375 25.9688 11.8665 27.0678 14.886L27.586 16.3098" stroke="black" stroke-width="2"/>
<path d="M15.3675 36.5243C14.1359 35.1145 13.9727 32.7781 13.6462 28.1051L13.1772 21.554L30.7182 15.1696L34.5698 20.4895C37.3234 24.2791 38.7002 26.1738 38.6631 28.0454C38.6402 29.1915 38.2675 30.3139 37.5921 31.2701C35.0378 34.8871 22.3554 39.3858 18.2607 38.3062C17.1286 38.0078 16.1217 37.3876 15.3675 36.5243Z" stroke="black" stroke-width="2"/>
<path d="M21.0378 23.6592L26.0495 21.8351" stroke="black" stroke-width="2"/>
<rect x="28" width="20" height="20" rx="10" fill="#FFCD1E"/>
<path d="M39.1506 5.27273V14H37.8295V6.59375H37.7784L35.6903 7.95739V6.69602L37.8679 5.27273H39.1506Z" fill="black"/>
</svg>
