<svg width="40" height="40" viewBox="0 0 40 40" fill="none" xmlns="http://www.w3.org/2000/svg">
<rect width="40" height="40" rx="8" fill="#4A4448"/>
<path d="M25.625 12.5V23.75C25.625 23.9158 25.5592 24.0747 25.4419 24.1919C25.3247 24.3092 25.1658 24.375 25 24.375H15.2586L17.9422 27.0578C18.0003 27.1159 18.0463 27.1848 18.0777 27.2607C18.1092 27.3366 18.1254 27.4179 18.1254 27.5C18.1254 27.5821 18.1092 27.6634 18.0777 27.7393C18.0463 27.8152 18.0003 27.8841 17.9422 27.9422C17.8841 28.0003 17.8152 28.0463 17.7393 28.0777C17.6634 28.1092 17.5821 28.1253 17.5 28.1253C17.4179 28.1253 17.3366 28.1092 17.2607 28.0777C17.1848 28.0463 17.1159 28.0003 17.0578 27.9422L13.3078 24.1922C13.2497 24.1341 13.2036 24.0652 13.1722 23.9893C13.1407 23.9135 13.1245 23.8321 13.1245 23.75C13.1245 23.6679 13.1407 23.5865 13.1722 23.5107C13.2036 23.4348 13.2497 23.3659 13.3078 23.3078L17.0578 19.5578C17.1751 19.4405 17.3342 19.3747 17.5 19.3747C17.6659 19.3747 17.8249 19.4405 17.9422 19.5578C18.0595 19.6751 18.1254 19.8341 18.1254 20C18.1254 20.1659 18.0595 20.3249 17.9422 20.4422L15.2586 23.125H24.375V12.5C24.375 12.3342 24.4408 12.1753 24.5581 12.0581C24.6753 11.9408 24.8342 11.875 25 11.875C25.1658 11.875 25.3247 11.9408 25.4419 12.0581C25.5592 12.1753 25.625 12.3342 25.625 12.5Z" fill="white"/>
</svg>
