<svg width="232" height="112" viewBox="0 0 232 112" fill="none" xmlns="http://www.w3.org/2000/svg">
<path d="M52.792 46.8928C53.0939 46.7587 53.4126 46.6077 53.748 46.44C54.0163 46.3058 54.2679 46.1884 54.5027 46.0878C54.7375 45.9536 55.0058 45.8362 55.3077 45.7356L55.509 45.2325C55.6096 45.0647 55.6935 44.897 55.7606 44.7293C56.4314 43.1863 57.0687 41.5427 57.6725 39.7985C58.3098 38.0207 58.5614 36.0585 58.4272 33.9117C58.6285 33.4756 58.7794 33.0731 58.8801 32.7042C59.0142 32.3352 59.1149 31.9494 59.1819 31.5469C59.249 31.1109 59.2658 30.658 59.2323 30.1884C59.2323 29.6853 59.2155 28.9977 59.1819 28.1255C59.3832 27.7901 59.5509 27.3373 59.6851 26.7671C59.8528 26.1968 59.9031 25.6769 59.836 25.2073L59.6851 24.2513L60.6411 24.352C60.574 24.2178 60.5237 24.1004 60.4901 23.9998L60.3895 23.6979C60.2553 23.396 60.1379 23.1109 60.0373 22.8425C59.9702 22.5406 59.9702 22.222 60.0373 21.8865C59.4335 21.484 59.0142 20.897 58.7794 20.1255C58.6453 19.8572 58.3266 19.5889 57.8235 19.3205C57.7564 19.287 57.7061 19.2534 57.6725 19.2199C57.639 19.1863 57.5551 19.1193 57.4209 19.0186C57.1526 18.7838 57.0184 18.4987 57.0184 18.1633C56.9513 18.1297 56.8675 18.0962 56.7669 18.0626C56.6998 18.0291 56.6159 17.9788 56.5153 17.9117C56.1463 17.744 55.7606 17.5763 55.358 17.4086C54.9555 17.2408 54.5698 17.157 54.2008 17.157C53.8318 17.157 53.4796 17.2576 53.1442 17.4589C52.574 18.8677 51.8193 20.0417 50.8801 20.9809C49.9409 21.9201 48.9681 22.7922 47.9618 23.5972C47.4251 24.0333 46.9052 24.4694 46.4021 24.9054C45.9325 25.3415 45.3958 25.8446 44.792 26.4149C44.5237 26.4484 44.2553 26.549 43.987 26.7167C43.7186 26.8509 43.4503 27.0186 43.1819 27.2199C42.7794 27.4882 42.3434 27.7566 41.8738 28.0249C41.4377 28.2597 40.9513 28.3771 40.4146 28.3771C39.945 28.3771 39.4084 28.1423 38.8046 27.6727C38.7375 27.3708 38.704 27.1025 38.704 26.8677C38.704 26.5993 38.7207 26.3478 38.7543 26.113C38.8549 25.5763 38.8214 25.157 38.6536 24.8551L38.6033 24.352C38.771 23.9159 38.8381 23.4966 38.8046 23.0941C38.8046 22.6916 38.7207 22.3058 38.553 21.9369C38.4188 21.5343 38.2176 21.1486 37.9492 20.7796C37.7144 20.3771 37.4629 19.9746 37.1945 19.5721C36.9933 19.2031 36.7752 18.8845 36.5404 18.6161C36.2385 18.549 35.9534 18.4819 35.6851 18.4149C35.4503 18.3142 35.1484 18.2136 34.7794 18.113C34.5111 18.113 34.3098 17.9452 34.1757 17.6098L34.075 17.0564C33.7396 16.6538 33.2029 16.3016 32.465 15.9998C31.3916 16.4023 30.5698 16.9557 29.9996 17.6601C29.4629 18.331 28.8926 19.1863 28.2889 20.2262C28.0876 20.5616 27.8696 20.9138 27.6348 21.2828C27.4335 21.6182 27.1987 21.9872 26.9304 22.3897C26.5949 22.8928 26.1757 23.6308 25.6725 24.6035C25.2029 25.5763 24.6998 26.6497 24.1631 27.8237C23.6264 28.9641 23.0897 30.1549 22.553 31.396C22.0163 32.6035 21.53 33.7104 21.0939 34.7167C20.6914 35.723 20.3559 36.5448 20.0876 37.1821C19.8193 37.8195 19.6851 38.1549 19.6851 38.1884C19.3832 38.8928 19.2155 39.7314 19.1819 40.7042C19.1819 41.6434 19.2658 42.5826 19.4335 43.5218C19.6348 44.461 19.9031 45.3499 20.2385 46.1884C20.6075 46.9935 21.01 47.6308 21.4461 48.1004C22.0499 48.201 22.4859 48.2513 22.7543 48.2513C23.3245 48.2513 23.7773 48.0668 24.1128 47.6979C24.4482 47.3624 24.901 46.6077 25.4713 45.4337C25.5383 45.2325 25.5719 45.0144 25.5719 44.7796C25.6054 44.6119 25.6222 44.4442 25.6222 44.2765C25.6557 44.1088 25.7061 43.9411 25.7731 43.7733C25.8738 43.6056 25.9912 43.4547 26.1253 43.3205C26.2931 43.1528 26.444 42.9851 26.5782 42.8174C26.813 42.6497 26.9639 42.4149 27.031 42.113C26.8968 41.8782 26.8633 41.6266 26.9304 41.3582C27.0981 40.8551 27.3497 40.4023 27.6851 39.9998C28.0205 39.5972 28.3392 39.245 28.6411 38.9432C28.6075 38.5406 28.6578 38.071 28.792 37.5343C28.9597 36.9641 29.1442 36.4107 29.3455 35.874C29.5467 35.3373 29.748 34.8677 29.9492 34.4652C30.1505 34.0291 30.3014 33.744 30.4021 33.6098L30.8046 32.9557L31.2071 33.7104C32.6159 36.5616 34.7291 37.9872 37.5467 37.9872C38.6536 37.9872 39.7773 37.8027 40.9178 37.4337C42.0918 37.0647 43.2323 36.5951 44.3392 36.0249C45.4796 35.4211 46.5698 34.7838 47.6096 34.113C48.6495 33.4086 49.6054 32.7377 50.4775 32.1004C50.5446 31.8991 50.6285 31.7817 50.7291 31.7482C50.8633 31.7146 50.9975 31.6979 51.1316 31.6979L51.5845 32.201C51.5845 32.5029 51.5006 32.7042 51.3329 32.8048C50.2595 36.5281 49.7396 39.5972 49.7731 42.0123C49.8402 44.4274 50.5279 46.1213 51.836 47.0941C52.205 47.0941 52.5237 47.027 52.792 46.8928Z" fill="#D658B3"/>
<path d="M88.9681 19.5721C89.0017 19.4379 89.0017 19.2534 88.9681 19.0186C88.3308 18.7503 87.7438 18.4316 87.2071 18.0626C86.704 17.6601 86.2847 17.1738 85.9492 16.6035C85.9828 16.9054 85.8989 17.006 85.6977 16.9054C85.53 16.7712 85.379 16.8551 85.2448 17.157C84.9765 17.157 84.6914 17.006 84.3895 16.7042C82.9807 16.9725 81.7228 17.1738 80.6159 17.3079C79.509 17.4421 78.4356 17.593 77.3958 17.7608C76.3895 17.8949 75.3497 18.0794 74.2763 18.3142C73.2365 18.549 72.0457 18.8845 70.704 19.3205C69.966 19.4882 69.2616 19.6392 68.5908 19.7733C67.9199 19.9075 67.2994 20.0752 66.7291 20.2765C66.1589 20.4777 65.6222 20.7461 65.1191 21.0815C64.6495 21.3834 64.2469 21.7859 63.9115 22.2891C64.0792 22.8593 64.1966 23.4295 64.2637 23.9998C64.3308 24.5364 64.4147 25.0731 64.5153 25.6098C64.6159 26.113 64.7669 26.6329 64.9681 27.1696C65.2029 27.6727 65.5551 28.1423 66.0247 28.5784C65.7899 29.2157 65.5383 29.8027 65.27 30.3394C65.0352 30.8425 64.7836 31.3457 64.5153 31.8488C64.2805 32.352 64.0457 32.8719 63.8109 33.4086C63.5761 33.9452 63.358 34.5155 63.1568 35.1193C62.922 35.0857 62.7878 35.1528 62.7543 35.3205C62.7207 35.4547 62.6201 35.5385 62.4524 35.5721C62.553 36.0417 62.4356 36.4777 62.1002 36.8803C61.7983 37.2828 61.597 37.7356 61.4964 38.2387C61.3958 38.7084 61.3622 39.2283 61.3958 39.7985C61.4629 40.3687 61.5467 40.9557 61.6474 41.5595C61.748 42.1297 61.8486 42.6832 61.9492 43.2199C62.0499 43.7566 62.117 44.2429 62.1505 44.679C62.5195 44.8467 62.7375 45.0983 62.8046 45.4337C62.9052 45.7356 63.0897 46.0039 63.358 46.2387C63.9954 46.8761 64.8172 47.3121 65.8235 47.5469C66.8298 47.8153 67.8864 47.9662 68.9933 47.9998C70.1002 48.0333 71.1903 47.983 72.2637 47.8488C73.3371 47.7146 74.2595 47.5637 75.031 47.396C75.2994 47.396 75.5342 47.4295 75.7354 47.4966C75.9367 47.5972 76.1882 47.614 76.4901 47.5469C77.7312 47.3121 78.8549 47.1109 79.8612 46.9432C80.901 46.7754 81.8402 46.5406 82.6788 46.2387C83.5174 45.9369 84.2553 45.5008 84.8926 44.9306C85.5635 44.3268 86.1505 43.4715 86.6536 42.3645C86.4524 42.3981 86.3015 42.3645 86.2008 42.2639C86.1337 42.1297 86.0834 41.9788 86.0499 41.8111C86.0163 41.6434 85.966 41.4756 85.8989 41.3079C85.8654 41.1067 85.7815 40.939 85.6474 40.8048C85.3455 40.8383 85.0939 40.7712 84.8926 40.6035C84.6914 40.4358 84.4901 40.2513 84.2889 40.0501C84.1212 39.8153 83.9367 39.5805 83.7354 39.3457C83.5342 39.0773 83.2994 38.8928 83.031 38.7922C82.2595 39.0606 81.4042 39.2618 80.465 39.396C79.5593 39.4966 78.771 39.7314 78.1002 40.1004C77.0268 40.0668 76.1379 40.1004 75.4335 40.201C74.7291 40.2681 74.0415 40.352 73.3706 40.4526C72.6998 40.5197 71.9786 40.57 71.2071 40.6035C70.4692 40.6371 69.53 40.57 68.3895 40.4023C68.7249 39.4966 69.1107 38.6413 69.5467 37.8362C69.9828 37.0312 70.4692 36.2765 71.0059 35.5721C71.4084 35.7063 71.8612 35.7733 72.3643 35.7733C72.901 35.7398 73.3539 35.8069 73.7228 35.9746C73.9912 35.8069 74.3601 35.7566 74.8298 35.8237C75.3329 35.8907 75.7186 35.8404 75.987 35.6727C76.1212 35.7733 76.2218 35.8237 76.2889 35.8237H76.6914C77.4964 35.8572 78.2176 35.7901 78.8549 35.6224C79.5258 35.4211 80.1463 35.1696 80.7165 34.8677C81.3203 34.5658 81.8905 34.2304 82.4272 33.8614C82.9639 33.4589 83.5006 33.0731 84.0373 32.7042C84.1715 32.3687 84.205 32.0501 84.1379 31.7482C84.1044 31.4128 84.0205 31.1109 83.8864 30.8425C83.5509 30.8761 83.249 30.8258 82.9807 30.6916C82.7459 30.5239 82.5111 30.3226 82.2763 30.0878L81.5719 29.3834C81.3371 29.1151 81.1023 28.897 80.8675 28.7293C80.8339 28.5951 80.8507 28.5113 80.9178 28.4777C80.9849 28.4107 81.0017 28.2933 80.9681 28.1255C79.5929 28.1591 78.184 28.2429 76.7417 28.3771C75.3329 28.5113 74.0415 28.5281 72.8675 28.4274C72.7669 28.2262 72.7165 27.9746 72.7165 27.6727C72.7501 27.3373 72.6998 27.0186 72.5656 26.7167C72.8675 26.6161 73.1694 26.5323 73.4713 26.4652C73.7731 26.3645 74.0247 26.2136 74.226 26.0123C74.8968 26.0794 75.4 26.0291 75.7354 25.8614C76.1044 25.6937 76.5069 25.6937 76.943 25.8614C78.0499 25.1905 79.1568 24.7545 80.2637 24.5532C81.4042 24.352 82.5111 24.1675 83.5845 23.9998C84.6578 23.7985 85.6474 23.4966 86.553 23.0941C87.4922 22.658 88.314 21.8698 89.0184 20.7293C88.9513 20.4945 88.9178 20.3268 88.9178 20.2262V19.874C88.9513 19.7733 88.9681 19.6727 88.9681 19.5721Z" fill="#D658B3"/>
<path fill-rule="evenodd" clip-rule="evenodd" d="M122.578 46.44C122.243 46.6077 121.924 46.7587 121.622 46.8928C121.354 47.027 121.035 47.0941 120.666 47.0941C119.358 46.1213 118.67 44.4274 118.603 42.0123C118.57 39.5972 119.09 36.5281 120.163 32.8048C120.331 32.7042 120.415 32.5029 120.415 32.201L119.962 31.6979C119.828 31.6979 119.693 31.7146 119.559 31.7482C119.459 31.7817 119.375 31.8991 119.308 32.1004C118.436 32.7377 117.48 33.4086 116.44 34.113C115.4 34.7838 114.31 35.4211 113.169 36.0249C112.062 36.5951 110.922 37.0647 109.748 37.4337C108.608 37.8027 107.484 37.9872 106.377 37.9872C103.559 37.9872 101.446 36.5616 100.037 33.7104L99.6348 32.9557L99.2323 33.6098C99.1316 33.744 98.9807 34.0291 98.7794 34.4652C98.5782 34.8677 98.3769 35.3373 98.1757 35.874C97.9744 36.4107 97.7899 36.9641 97.6222 37.5343C97.488 38.071 97.4377 38.5406 97.4713 38.9432C97.1694 39.245 96.8507 39.5972 96.5153 39.9998C96.1799 40.4023 95.9283 40.8551 95.7606 41.3582C95.6935 41.6266 95.727 41.8782 95.8612 42.113C95.7941 42.4149 95.6432 42.6497 95.4084 42.8174C95.2742 42.9851 95.1233 43.1528 94.9555 43.3205C94.8214 43.4547 94.704 43.6056 94.6033 43.7733C94.5362 43.9411 94.4859 44.1088 94.4524 44.2765C94.4524 44.4442 94.4356 44.6119 94.4021 44.7796C94.4021 45.0144 94.3685 45.2325 94.3015 45.4337C93.7312 46.6077 93.2784 47.3624 92.943 47.6979C92.6075 48.0668 92.1547 48.2513 91.5845 48.2513C91.3161 48.2513 90.8801 48.201 90.2763 48.1004C89.8402 47.6308 89.4377 46.9935 89.0687 46.1884C88.7333 45.3499 88.465 44.461 88.2637 43.5218C88.096 42.5826 88.0121 41.6434 88.0121 40.7042C88.0457 39.7314 88.2134 38.8928 88.5153 38.1884C88.5153 38.1549 88.6495 37.8195 88.9178 37.1821C89.1861 36.5448 89.5216 35.723 89.9241 34.7167C90.3602 33.7104 90.8465 32.6035 91.3832 31.396C91.9199 30.1549 92.4566 28.9641 92.9933 27.8237C93.53 26.6497 94.0331 25.5763 94.5027 24.6035C95.0059 23.6308 95.4251 22.8928 95.7606 22.3897C96.0289 21.9872 96.2637 21.6182 96.465 21.2828C96.6998 20.9138 96.9178 20.5616 97.1191 20.2262C97.7228 19.1863 98.2931 18.331 98.8298 17.6601C99.4 16.9557 100.222 16.4023 101.295 15.9998C102.033 16.3016 102.57 16.6538 102.905 17.0564L103.006 17.6098C103.14 17.9452 103.341 18.113 103.61 18.113C103.979 18.2136 104.28 18.3142 104.515 18.4149C104.784 18.4819 105.069 18.549 105.371 18.6161C105.605 18.8845 105.823 19.2031 106.025 19.5721C106.293 19.9746 106.545 20.3771 106.779 20.7796C107.048 21.1486 107.249 21.5343 107.383 21.9369C107.551 22.3058 107.635 22.6916 107.635 23.0941C107.668 23.4966 107.601 23.9159 107.434 24.352L107.484 24.8551C107.652 25.157 107.685 25.5763 107.584 26.113C107.551 26.3478 107.534 26.5993 107.534 26.8677C107.534 27.1025 107.568 27.3708 107.635 27.6727C108.239 28.1423 108.775 28.3771 109.245 28.3771C109.782 28.3771 110.268 28.2597 110.704 28.0249C111.174 27.7566 111.61 27.4882 112.012 27.2199C112.28 27.0186 112.549 26.8509 112.817 26.7167C113.086 26.549 113.354 26.4484 113.622 26.4149C114.226 25.8446 114.763 25.3415 115.232 24.9054C115.735 24.4694 116.255 24.0333 116.792 23.5972C117.798 22.7922 118.771 21.9201 119.71 20.9809C120.649 20.0417 121.404 18.8677 121.974 17.4589C122.31 17.2576 122.662 17.157 123.031 17.157C123.4 17.157 123.786 17.2408 124.188 17.4086C124.591 17.5763 124.977 17.744 125.345 17.9117C125.446 17.9788 125.53 18.0291 125.597 18.0626C125.698 18.0962 125.782 18.1297 125.849 18.1633C125.849 18.4987 125.983 18.7838 126.251 19.0186C126.385 19.1193 126.469 19.1863 126.503 19.2199C126.536 19.2534 126.587 19.287 126.654 19.3205C127.157 19.5889 127.475 19.8572 127.61 20.1255C127.793 20.7276 128.088 21.2173 128.496 21.5946C128.768 21.1263 129.11 20.7205 129.522 20.3771C130.125 19.8404 130.813 19.4044 131.584 19.0689C132.356 18.7 133.178 18.4149 134.05 18.2136C134.922 17.9788 135.761 17.7608 136.566 17.5595C137.874 17.3247 139.182 17.0564 140.49 16.7545C141.798 16.4526 143.207 16.352 144.717 16.4526C144.918 16.352 145.153 16.3016 145.421 16.3016C145.723 16.2681 146.025 16.2513 146.327 16.2513H147.182C147.484 16.2178 147.735 16.1507 147.937 16.0501C148.104 16.2513 148.339 16.3855 148.641 16.4526C148.977 16.4861 149.329 16.6371 149.698 16.9054C150.1 16.6035 150.436 16.5364 150.704 16.7042C151.006 16.8719 151.274 17.0564 151.509 17.2576C151.744 17.4589 151.962 17.6434 152.163 17.8111C152.398 17.9788 152.633 18.0626 152.867 18.0626C153.102 18.3645 153.387 18.6497 153.723 18.918C154.092 19.1863 154.427 19.4715 154.729 19.7733C155.065 20.0417 155.333 20.3436 155.534 20.679C155.769 21.0144 155.886 21.4002 155.886 21.8362C155.853 22.0039 155.903 22.1046 156.037 22.1381C156.171 22.1717 156.272 22.2387 156.339 22.3394C156.373 23.3792 156.205 24.2849 155.836 25.0564C155.501 25.7943 155.065 26.4819 154.528 27.1193C154.025 27.7566 153.454 28.3603 152.817 28.9306C152.213 29.5008 151.66 30.1046 151.157 30.7419C151.492 31.178 151.878 31.5637 152.314 31.8991L153.622 32.9054C154.092 33.2408 154.528 33.593 154.93 33.962C155.333 34.331 155.668 34.7671 155.937 35.2702C156.004 35.3373 156.088 35.4044 156.188 35.4715C156.289 35.505 156.39 35.5553 156.49 35.6224C156.591 35.9578 156.725 36.31 156.893 36.679C157.06 37.0144 157.195 37.3499 157.295 37.6853C157.429 37.9872 157.513 38.2723 157.547 38.5406C157.58 38.7754 157.513 38.9767 157.345 39.1444C157.547 39.245 157.664 39.4128 157.698 39.6476C157.731 39.8824 157.731 40.0668 157.698 40.201C157.094 40.9725 156.675 41.5092 156.44 41.8111C156.205 42.113 156.037 42.3478 155.937 42.5155C155.836 42.6497 155.719 42.767 155.584 42.8677C155.484 42.9683 155.232 43.1863 154.83 43.5218C153.32 44.4274 151.761 45.2325 150.151 45.9369C148.574 46.6413 146.914 47.1276 145.169 47.396C144.901 47.765 144.381 48.0165 143.61 48.1507C142.872 48.3184 142.184 48.4694 141.547 48.6035C141.413 48.5364 141.329 48.4358 141.295 48.3016C141.295 48.201 141.228 48.1172 141.094 48.0501C141.06 48.3855 140.909 48.5532 140.641 48.5532C140.373 48.5868 140.037 48.5197 139.635 48.352C139.266 48.2178 138.863 48.0165 138.427 47.7482C138.025 47.5134 137.673 47.2954 137.371 47.0941C137.203 47.3624 137.018 47.6308 136.817 47.8991C136.649 48.1675 136.431 48.352 136.163 48.4526C135.794 48.3855 135.509 48.3352 135.308 48.3016C135.14 48.2681 134.972 48.3352 134.805 48.5029C134.603 48.4023 134.436 48.2849 134.301 48.1507C134.201 48.0165 134.083 47.8824 133.949 47.7482C133.849 47.6476 133.714 47.5469 133.547 47.4463C133.413 47.3457 133.211 47.2618 132.943 47.1947C133.01 47.0606 132.977 46.8593 132.842 46.591C132.708 46.2891 132.507 46.1046 132.239 46.0375C132.373 45.8027 132.306 45.5176 132.037 45.1821C131.803 44.8132 131.618 44.4107 131.484 43.9746C131.551 43.6056 131.601 43.2031 131.635 42.767C131.668 42.331 131.87 42.0794 132.239 42.0123C132.205 41.7775 132.155 41.5763 132.088 41.4086L131.886 40.9054C132.121 40.7042 132.289 40.4694 132.39 40.201C132.49 39.8991 132.574 39.5972 132.641 39.2954C132.708 38.9935 132.792 38.6916 132.893 38.3897C132.993 38.0878 133.178 37.8362 133.446 37.635C133.748 36.6287 133.983 35.8907 134.151 35.4211C134.318 34.918 134.436 34.4316 134.503 33.962C134.603 33.4924 134.704 32.9893 134.805 32.4526C134.939 31.9159 135.157 31.245 135.459 30.44C135.425 29.9369 135.475 29.5008 135.61 29.1318C135.744 28.7293 135.878 28.3436 136.012 27.9746C136.18 27.5721 136.314 27.1696 136.415 26.7671C136.515 26.331 136.499 25.8278 136.364 25.2576C135.895 25.2912 135.559 25.4589 135.358 25.7608C135.157 26.0291 135.023 26.3981 134.956 26.8677C134.687 27.136 134.352 27.2702 133.949 27.2702C133.58 27.2367 133.245 27.2702 132.943 27.3708C131.769 26.9012 130.796 26.2304 130.025 25.3582C129.739 25.0351 129.474 24.6911 129.229 24.3265L128.515 24.2513L128.666 25.2073C128.733 25.6769 128.683 26.1968 128.515 26.7671C128.381 27.3373 128.213 27.7901 128.012 28.1255C128.046 28.9977 128.062 29.6853 128.062 30.1884C128.096 30.658 128.079 31.1109 128.012 31.5469C127.945 31.9494 127.844 32.3352 127.71 32.7042C127.61 33.0731 127.459 33.4756 127.257 33.9117C127.392 36.0585 127.14 38.0207 126.503 39.7985C125.899 41.5427 125.262 43.1863 124.591 44.7293C124.524 44.897 124.44 45.0647 124.339 45.2325L124.138 45.7356C123.836 45.8362 123.568 45.9536 123.333 46.0878C123.098 46.1884 122.847 46.3058 122.578 46.44ZM143.358 22.7922C145.069 22.4232 146.779 22.2723 148.49 22.3394C147.652 23.3457 146.729 24.2681 145.723 25.1067C144.717 25.9117 143.559 26.5826 142.251 27.1193C141.916 26.4819 141.446 25.9788 140.842 25.6098C140.272 25.2408 139.702 24.8216 139.132 24.352C140.272 23.6811 141.681 23.1612 143.358 22.7922ZM149.698 37.5847C149.429 37.7859 149.245 38.0543 149.144 38.3897C148.306 38.6916 147.501 39.027 146.729 39.396C145.991 39.7314 145.22 40.0668 144.415 40.4023C143.643 40.7377 142.838 41.0564 142 41.3582C141.161 41.6266 140.239 41.8278 139.232 41.962C139.601 40.8886 139.987 39.7817 140.39 38.6413C140.792 37.5008 141.178 36.4442 141.547 35.4715C142.285 35.3708 143.006 35.2031 143.71 34.9683C144.448 34.7335 145.203 34.5658 145.974 34.4652C146.779 34.331 147.618 34.331 148.49 34.4652C149.396 34.5658 150.385 34.9012 151.459 35.4715C151.492 35.874 151.408 36.1926 151.207 36.4274C151.006 36.6287 150.771 36.8299 150.503 37.0312C150.234 37.1989 149.966 37.3834 149.698 37.5847Z" fill="#D658B3"/>
<path d="M187.333 19.0186C187.366 19.2534 187.366 19.4379 187.333 19.5721C187.333 19.6727 187.316 19.7733 187.283 19.874V20.2262C187.283 20.3268 187.316 20.4945 187.383 20.7293C186.679 21.8698 185.857 22.658 184.918 23.0941C184.012 23.4966 183.023 23.7985 181.949 23.9998C180.876 24.1675 179.769 24.352 178.629 24.5532C177.522 24.7545 176.415 25.1905 175.308 25.8614C174.872 25.6937 174.469 25.6937 174.1 25.8614C173.765 26.0291 173.262 26.0794 172.591 26.0123C172.39 26.2136 172.138 26.3645 171.836 26.4652C171.534 26.5323 171.232 26.6161 170.93 26.7167C171.065 27.0186 171.115 27.3373 171.081 27.6727C171.081 27.9746 171.132 28.2262 171.232 28.4274C172.406 28.5281 173.698 28.5113 175.106 28.3771C176.549 28.2429 177.958 28.1591 179.333 28.1255C179.366 28.2933 179.35 28.4107 179.283 28.4777C179.215 28.5113 179.199 28.5951 179.232 28.7293C179.467 28.897 179.702 29.1151 179.937 29.3834L180.641 30.0878C180.876 30.3226 181.111 30.5239 181.345 30.6916C181.614 30.8258 181.916 30.8761 182.251 30.8425C182.385 31.1109 182.469 31.4128 182.503 31.7482C182.57 32.0501 182.536 32.3687 182.402 32.7042C181.865 33.0731 181.329 33.4589 180.792 33.8614C180.255 34.2304 179.685 34.5658 179.081 34.8677C178.511 35.1696 177.891 35.4211 177.22 35.6224C176.582 35.7901 175.861 35.8572 175.056 35.8237H174.654C174.587 35.8237 174.486 35.7733 174.352 35.6727C174.083 35.8404 173.698 35.8907 173.195 35.8237C172.725 35.7566 172.356 35.8069 172.088 35.9746C171.719 35.8069 171.266 35.7398 170.729 35.7733C170.226 35.7733 169.773 35.7063 169.371 35.5721C168.834 36.2765 168.348 37.0312 167.912 37.8362C167.475 38.6413 167.09 39.4966 166.754 40.4023C167.895 40.57 168.834 40.6371 169.572 40.6035C170.343 40.57 171.065 40.5197 171.735 40.4526C172.406 40.352 173.094 40.2681 173.798 40.201C174.503 40.1004 175.392 40.0668 176.465 40.1004C177.136 39.7314 177.924 39.4966 178.83 39.396C179.769 39.2618 180.624 39.0606 181.396 38.7922C181.664 38.8928 181.899 39.0773 182.1 39.3457C182.301 39.5805 182.486 39.8153 182.654 40.0501C182.855 40.2513 183.056 40.4358 183.257 40.6035C183.459 40.7712 183.71 40.8383 184.012 40.8048C184.146 40.939 184.23 41.1067 184.264 41.3079C184.331 41.4756 184.381 41.6434 184.415 41.8111C184.448 41.9788 184.499 42.1297 184.566 42.2639C184.666 42.3645 184.817 42.3981 185.018 42.3645C184.515 43.4715 183.928 44.3268 183.257 44.9306C182.62 45.5008 181.882 45.9369 181.044 46.2387C180.205 46.5406 179.266 46.7754 178.226 46.9432C177.22 47.1109 176.096 47.3121 174.855 47.5469C174.553 47.614 174.301 47.5972 174.1 47.4966C173.899 47.4295 173.664 47.396 173.396 47.396C172.624 47.5637 171.702 47.7146 170.629 47.8488C169.555 47.983 168.465 48.0333 167.358 47.9998C166.251 47.9662 165.195 47.8153 164.188 47.5469C163.182 47.3121 162.36 46.8761 161.723 46.2387C161.454 46.0039 161.27 45.7356 161.169 45.4337C161.102 45.0983 160.884 44.8467 160.515 44.679C160.482 44.2429 160.415 43.7566 160.314 43.2199C160.213 42.6832 160.113 42.1297 160.012 41.5595C159.912 40.9557 159.828 40.3687 159.761 39.7985C159.727 39.2283 159.761 38.7084 159.861 38.2387C159.962 37.7356 160.163 37.2828 160.465 36.8803C160.8 36.4777 160.918 36.0417 160.817 35.5721C160.985 35.5385 161.086 35.4547 161.119 35.3205C161.153 35.1528 161.287 35.0857 161.522 35.1193C161.723 34.5155 161.941 33.9452 162.176 33.4086C162.41 32.8719 162.645 32.352 162.88 31.8488C163.148 31.3457 163.4 30.8425 163.635 30.3394C163.903 29.8027 164.155 29.2157 164.39 28.5784C163.92 28.1423 163.568 27.6727 163.333 27.1696C163.132 26.6329 162.981 26.113 162.88 25.6098C162.779 25.0731 162.696 24.5364 162.629 23.9998C162.561 23.4295 162.444 22.8593 162.276 22.2891C162.612 21.7859 163.014 21.3834 163.484 21.0815C163.987 20.7461 164.524 20.4777 165.094 20.2765C165.664 20.0752 166.285 19.9075 166.956 19.7733C167.626 19.6392 168.331 19.4882 169.069 19.3205C170.41 18.8845 171.601 18.549 172.641 18.3142C173.714 18.0794 174.754 17.8949 175.761 17.7608C176.8 17.593 177.874 17.4421 178.981 17.3079C180.088 17.1738 181.345 16.9725 182.754 16.7042C183.056 17.006 183.341 17.157 183.61 17.157C183.744 16.8551 183.895 16.7712 184.062 16.9054C184.264 17.006 184.348 16.9054 184.314 16.6035C184.649 17.1738 185.069 17.6601 185.572 18.0626C186.109 18.4316 186.696 18.7503 187.333 19.0186Z" fill="#D658B3"/>
<path fill-rule="evenodd" clip-rule="evenodd" d="M192.717 45.1821C193.018 44.4777 193.354 43.4547 193.723 42.113C194.36 42.6832 194.897 43.1696 195.333 43.5721C195.803 43.9746 196.306 44.3603 196.842 44.7293C197.413 45.0647 198.067 45.4169 198.805 45.7859C199.576 46.1213 200.566 46.5239 201.773 46.9935C204.188 47.9327 206.184 48.57 207.761 48.9054C209.337 49.2744 210.645 49.2576 211.685 48.8551C211.987 48.8216 212.222 48.7209 212.39 48.5532C212.557 48.419 212.708 48.2513 212.842 48.0501L213.245 47.4463C213.379 47.245 213.547 47.0773 213.748 46.9432C213.614 46.9096 213.48 46.9096 213.346 46.9432C213.245 46.9432 213.178 46.8928 213.144 46.7922C213.346 46.5574 213.463 46.2555 213.496 45.8865C213.53 45.484 213.513 45.0815 213.446 44.679C213.379 44.2429 213.228 43.8237 212.993 43.4211C212.792 42.9851 212.54 42.6161 212.239 42.3142C211.467 42.2471 210.863 42.1968 210.427 42.1633L209.22 41.962C208.817 41.8614 208.364 41.7608 207.861 41.6601C207.392 41.526 206.721 41.3582 205.849 41.157C204.977 40.9557 204.289 40.788 203.786 40.6538C203.316 40.4861 202.863 40.3016 202.427 40.1004C202.025 39.8991 201.589 39.6476 201.119 39.3457C200.649 39.0438 200.012 38.6413 199.207 38.1381C199.241 37.9704 199.19 37.8865 199.056 37.8865C198.956 37.8865 198.905 37.8195 198.905 37.6853C200.012 37.2157 201.253 36.7796 202.629 36.3771C204.004 35.9746 205.295 35.4882 206.503 34.918C207.71 34.3142 208.733 33.5595 209.572 32.6538C210.444 31.7482 210.93 30.5574 211.031 29.0815C211.065 28.8467 211.065 28.6622 211.031 28.5281C210.997 28.3939 210.947 28.2597 210.88 28.1255C210.847 27.9914 210.83 27.874 210.83 27.7733C210.83 27.6392 210.863 27.4882 210.93 27.3205C210.662 26.8174 210.427 26.2974 210.226 25.7608C210.025 25.1905 209.823 24.6371 209.622 24.1004C209.421 23.5302 209.186 23.0102 208.918 22.5406C208.683 22.0375 208.364 21.6014 207.962 21.2325V20.6287C207.693 20.461 207.459 20.31 207.257 20.1759C207.09 20.0081 206.872 19.8572 206.603 19.723C206.067 18.8845 205.379 18.2136 204.54 17.7104C203.735 17.1738 202.997 16.6538 202.327 16.1507C201.018 16.2849 199.928 16.7042 199.056 17.4086C198.218 18.113 197.446 18.918 196.742 19.8237C196.037 20.7293 195.35 21.6685 194.679 22.6413C194.008 23.5805 193.236 24.3855 192.364 25.0564C192.264 24.8216 191.979 24.6371 191.509 24.5029C191.073 24.3352 190.67 24.2849 190.301 24.352C189.966 25.0899 189.698 25.8949 189.496 26.7671C189.295 27.6392 189.094 28.5281 188.893 29.4337C188.725 30.3394 188.524 31.2618 188.289 32.201C188.088 33.1067 187.819 33.9956 187.484 34.8677C187.517 35.0354 187.534 35.2534 187.534 35.5218C187.534 35.7566 187.517 36.0081 187.484 36.2765C187.45 36.5113 187.4 36.7125 187.333 36.8803C187.266 37.0144 187.165 37.0312 187.031 36.9306C187.232 37.4337 187.283 37.9201 187.182 38.3897C187.081 38.8593 186.947 39.3289 186.779 39.7985C186.645 40.2681 186.528 40.7712 186.427 41.3079C186.327 41.8446 186.226 42.4149 186.125 43.0186C186.26 43.2534 186.377 43.4882 186.478 43.723C186.578 43.9578 186.712 44.0752 186.88 44.0752C186.813 44.31 186.796 44.5113 186.83 44.679C186.863 44.8132 186.897 44.9641 186.93 45.1318C186.997 45.266 187.048 45.4337 187.081 45.635C187.115 45.8027 187.098 46.0207 187.031 46.2891C187.4 46.222 187.618 46.3058 187.685 46.5406C187.786 46.7754 187.87 47.027 187.937 47.2954C188.239 47.2954 188.457 47.3289 188.591 47.396C188.758 47.4966 188.893 47.5805 188.993 47.6476C189.094 47.7482 189.211 47.832 189.345 47.8991C189.48 47.9662 189.698 47.9662 190 47.8991C190.201 47.765 190.385 47.614 190.553 47.4463C190.721 47.2786 191.023 47.2283 191.459 47.2954C192.029 46.5574 192.448 45.853 192.717 45.1821ZM199.66 26.3142C200.13 25.8782 200.549 25.3918 200.918 24.8551C201.555 25.0564 202.159 25.4756 202.729 26.113C203.333 26.7503 203.702 27.5889 203.836 28.6287C202.696 29.0983 201.488 29.6014 200.213 30.1381C198.939 30.6413 197.714 30.9599 196.54 31.0941C196.675 30.3561 196.909 29.7188 197.245 29.1821C197.58 28.6119 197.949 28.1088 198.352 27.6727C198.788 27.2031 199.224 26.7503 199.66 26.3142Z" fill="#D658B3"/>
<path fill-rule="evenodd" clip-rule="evenodd" d="M169.862 87.044C169.828 86.8092 169.711 86.6415 169.509 86.5409C169.677 86.3732 169.744 86.1719 169.711 85.9371C169.677 85.6688 169.593 85.3836 169.459 85.0817C169.358 84.7463 169.224 84.4109 169.057 84.0755C168.889 83.7065 168.755 83.3543 168.654 83.0189C168.553 82.9518 168.453 82.9015 168.352 82.8679C168.252 82.8008 168.168 82.7337 168.101 82.6667C167.832 82.1635 167.497 81.7275 167.094 81.3585C166.692 80.9895 166.256 80.6373 165.786 80.3019L164.478 79.2956C164.042 78.9602 163.656 78.5744 163.321 78.1384C163.824 77.501 164.377 76.8973 164.981 76.327C165.618 75.7568 166.189 75.153 166.692 74.5157C167.229 73.8784 167.665 73.1908 168 72.4528C168.369 71.6813 168.537 70.7757 168.503 69.7358C168.436 69.6352 168.335 69.5681 168.201 69.5346C168.067 69.501 168.017 69.4004 168.05 69.2327C168.05 68.7966 167.933 68.4109 167.698 68.0755C167.497 67.74 167.229 67.4381 166.893 67.1698C166.591 66.8679 166.256 66.5828 165.887 66.3145C165.551 66.0461 165.266 65.761 165.031 65.4591C164.797 65.4591 164.562 65.3753 164.327 65.2075C164.126 65.0398 163.908 64.8553 163.673 64.6541C163.438 64.4528 163.17 64.2683 162.868 64.1006C162.6 63.9329 162.264 64 161.862 64.3019C161.493 64.0335 161.14 63.8826 160.805 63.849C160.503 63.782 160.268 63.6478 160.101 63.4465C159.899 63.5472 159.648 63.6142 159.346 63.6478H158.491C158.189 63.6478 157.887 63.6646 157.585 63.6981C157.317 63.6981 157.082 63.7484 156.881 63.849C155.371 63.7484 153.962 63.849 152.654 64.1509C151.346 64.4528 150.038 64.7212 148.73 64.956C147.925 65.1572 147.086 65.3753 146.214 65.6101C145.342 65.8113 144.52 66.0964 143.748 66.4654C142.986 66.7967 142.306 67.2261 141.708 67.7538C141.581 67.2773 141.49 66.7305 141.434 66.1132C141.065 65.7107 140.662 65.3082 140.226 64.9057C139.824 64.5031 139.354 64.1342 138.818 63.7987C138.08 64.1342 137.61 64.6205 137.409 65.2579C137.275 65.5262 137.275 65.761 137.409 65.9623L137.509 66.5157C137.509 67.1195 137.224 67.522 136.654 67.7233C136.587 68.6625 136.453 69.6688 136.252 70.7421C136.084 71.782 135.816 72.8386 135.447 73.9119C135.111 74.9853 134.675 76.0251 134.138 77.0314C133.635 78.0042 133.031 78.8763 132.327 79.6478C131.623 80.4193 130.952 81.1069 130.314 81.7107C129.677 82.2809 129.006 82.7841 128.302 83.2201C127.597 83.6562 126.826 84.0419 125.987 84.3773C125.182 84.6792 124.277 84.9643 123.27 85.2327L122.415 85.3333L122.113 84.6792C121.912 84.1425 121.761 83.4885 121.66 82.717C121.593 81.9119 121.577 81.0901 121.61 80.2516C121.677 79.3794 121.795 78.5241 121.962 77.6855C122.164 76.847 122.432 76.109 122.767 75.4717C122.734 74.9015 122.6 74.3145 122.365 73.7107C122.164 73.0734 121.929 72.4696 121.66 71.8994C121.526 71.5639 121.392 71.262 121.258 70.9937C121.157 70.6918 121.073 70.4067 121.006 70.1384C120.503 69.9371 120.117 69.652 119.849 69.283C119.614 68.914 119.413 68.5786 119.245 68.2767C119.078 67.9077 118.91 67.6394 118.742 67.4717C118.574 67.304 118.256 67.2369 117.786 67.2704C117.618 67.5052 117.417 67.7736 117.182 68.0755C116.948 68.3438 116.595 68.5283 116.126 68.6289C115.925 69.2662 115.774 69.9539 115.673 70.6918C115.606 71.1279 115.522 71.5975 115.421 72.1006C115.321 72.5702 115.22 73.174 115.119 73.9119V74.4654C114.616 75.9748 114.348 77.7023 114.314 79.6478C114.314 81.5597 114.365 83.6729 114.465 85.9874L114.516 86.7924C114.583 86.8931 114.667 86.9937 114.767 87.0943C114.868 87.1614 114.952 87.2453 115.019 87.3459L116.126 88.5535L115.27 88.805C115.472 89.1404 115.656 89.4759 115.824 89.8113C115.992 90.1132 116.159 90.4486 116.327 90.8176C116.595 91.4214 116.864 91.9916 117.132 92.5283C117.434 93.0314 117.87 93.4172 118.44 93.6855C118.608 93.6855 118.792 93.7358 118.994 93.8365C119.195 93.9371 119.346 94.1216 119.447 94.3899C120.386 94.4906 121.174 94.5409 121.811 94.5409C122.18 94.5744 122.566 94.608 122.969 94.6415C123.405 94.6415 123.908 94.675 124.478 94.7421C125.887 94.1384 127.145 93.5849 128.252 93.0817C129.392 92.5786 130.398 92.0419 131.27 91.4717C132.176 90.8679 132.981 90.1971 133.686 89.4591C134.39 88.6876 135.061 87.7484 135.698 86.6415L136.201 86.0377L136.906 85.8365L137.107 84.5786L138.113 84.9308C138.18 84.8637 138.264 84.7296 138.365 84.5283C138.465 84.327 138.549 84.1761 138.616 84.0755C138.751 83.8407 138.868 83.6226 138.969 83.4214C139.103 83.1866 139.254 82.9853 139.421 82.8176C139.723 82.1467 140.126 81.3585 140.629 80.4528C141.132 79.5472 141.652 78.5073 142.189 77.3333C142.323 76.5283 142.44 75.7568 142.541 75.0189C142.63 74.5266 142.75 74.0046 142.899 73.4527C143.532 73.9936 144.268 74.4318 145.107 74.7673C145.409 74.6667 145.744 74.6331 146.113 74.6667C146.516 74.6667 146.851 74.5325 147.119 74.2641C147.187 73.7945 147.321 73.4256 147.522 73.1572C147.723 72.8553 148.059 72.6876 148.528 72.6541C148.662 73.2243 148.679 73.7275 148.579 74.1635C148.478 74.566 148.344 74.9685 148.176 75.3711C148.042 75.74 147.908 76.1258 147.774 76.5283C147.639 76.8973 147.589 77.3333 147.623 77.8365C147.321 78.6415 147.103 79.3124 146.969 79.849C146.868 80.3857 146.767 80.8889 146.667 81.3585C146.6 81.8281 146.482 82.3145 146.314 82.8176C146.147 83.2872 145.912 84.0251 145.61 85.0314C145.342 85.2327 145.157 85.4843 145.057 85.7862C144.956 86.088 144.872 86.3899 144.805 86.6918C144.738 86.9937 144.654 87.2956 144.553 87.5975C144.453 87.8658 144.285 88.1006 144.05 88.3019L144.252 88.805C144.319 88.9727 144.369 89.174 144.403 89.4088C144.034 89.4759 143.832 89.7275 143.799 90.1635C143.765 90.5996 143.715 91.0021 143.648 91.3711C143.782 91.8071 143.966 92.2096 144.201 92.5786C144.47 92.914 144.537 93.1992 144.403 93.434C144.671 93.501 144.872 93.6855 145.006 93.9874C145.14 94.2558 145.174 94.457 145.107 94.5912C145.375 94.6583 145.577 94.7421 145.711 94.8428C145.878 94.9434 146.013 95.044 146.113 95.1446C146.247 95.2788 146.365 95.413 146.465 95.5472C146.6 95.6813 146.767 95.7987 146.969 95.8994C147.136 95.7316 147.304 95.6646 147.472 95.6981C147.673 95.7316 147.958 95.782 148.327 95.849C148.595 95.7484 148.813 95.5639 148.981 95.2956C149.182 95.0272 149.367 94.7589 149.535 94.4906C149.836 94.6918 150.189 94.9098 150.591 95.1446C151.027 95.413 151.43 95.6142 151.799 95.7484C152.201 95.9161 152.537 95.9832 152.805 95.9497C153.073 95.9497 153.224 95.782 153.258 95.4465C153.392 95.5136 153.459 95.5975 153.459 95.6981C153.493 95.8323 153.577 95.9329 153.711 96C154.348 95.8658 155.036 95.7149 155.774 95.5472C156.545 95.413 157.065 95.1614 157.333 94.7924C159.078 94.5241 160.738 94.0377 162.314 93.3333C163.925 92.6289 165.484 91.8239 166.994 90.9182C167.396 90.5828 167.648 90.3648 167.748 90.2641C167.883 90.1635 168 90.0461 168.101 89.9119C168.201 89.7442 168.369 89.5094 168.604 89.2075C168.839 88.9056 169.258 88.369 169.862 87.5975C169.895 87.4633 169.895 87.2788 169.862 87.044ZM155.522 70.1887C157.233 69.8197 158.943 69.6688 160.654 69.7358C159.816 70.7421 158.893 71.6646 157.887 72.5031C156.881 73.3082 155.723 73.979 154.415 74.5157C154.08 73.8784 153.61 73.3753 153.006 73.0063C152.436 72.6373 151.866 72.218 151.296 71.7484C152.436 71.0776 153.845 70.5576 155.522 70.1887ZM161.862 84.9811C161.593 85.1824 161.409 85.4507 161.308 85.7862C160.47 86.088 159.665 86.4235 158.893 86.7924C158.155 87.1279 157.384 87.4633 156.579 87.7987C155.807 88.1342 155.002 88.4528 154.164 88.7547C153.325 89.023 152.403 89.2243 151.396 89.3585C151.765 88.2851 152.151 87.1782 152.553 86.0377C152.956 84.8973 153.342 83.8407 153.711 82.8679C154.449 82.7673 155.17 82.5996 155.874 82.3648C156.612 82.13 157.367 81.9623 158.138 81.8616C158.943 81.7275 159.782 81.7275 160.654 81.8616C161.56 81.9623 162.549 82.2977 163.623 82.8679C163.656 83.2704 163.572 83.5891 163.371 83.8239C163.17 84.0251 162.935 84.2264 162.667 84.4277C162.398 84.5954 162.13 84.7799 161.862 84.9811Z" fill="#D658B3"/>
<path d="M96.5535 95.0943C97.6604 94.7924 98.6834 94.4906 99.6226 94.1887L100.78 93.8868C101.216 93.8868 101.635 93.87 102.038 93.8365C102.474 93.8029 102.893 93.7526 103.296 93.6855L104.503 93.5849C104.906 93.5514 105.291 93.5346 105.66 93.5346C106.633 93.5346 107.572 93.6855 108.478 93.9874C109.149 93.8197 109.719 93.7358 110.189 93.7358H110.491C110.625 93.7358 110.826 93.7191 111.094 93.6855C111.262 93.5178 111.43 93.3669 111.597 93.2327C111.799 93.0985 112.151 92.9811 112.654 92.8805L112.553 92.327C112.688 92.1929 112.755 91.9916 112.755 91.7233C112.788 91.6226 112.688 91.4214 112.453 91.1195L112.101 88.956C111.765 88.6876 111.413 88.4864 111.044 88.3522C110.709 88.1845 110.356 88.0335 109.987 87.8994C109.585 87.7652 109.199 87.6142 108.83 87.4465C108.461 87.2788 108.075 87.0105 107.673 86.6415C107.505 86.608 107.304 86.5912 107.069 86.5912H106.667C106.6 86.5576 106.415 86.457 106.113 86.2893C105.711 86.3564 105.275 86.3899 104.805 86.3899H103.396C102.222 86.4235 101.031 86.4906 99.8239 86.5912C98.6499 86.6918 97.5597 87.0105 96.5535 87.5472C96.1509 87.4465 95.7987 87.3962 95.4969 87.3962H95.044C94.9099 87.3962 94.7589 87.4298 94.5912 87.4968C94.6583 86.2558 94.8428 85.1488 95.1447 84.1761C95.4801 83.2033 95.8491 82.2306 96.2516 81.2579C96.4864 80.7212 96.7044 80.1845 96.9057 79.6478C97.1405 79.1111 97.3082 78.4067 97.4088 77.5346C97.5765 77.4004 97.6939 77.2495 97.761 77.0818C97.8616 76.8805 97.9455 76.696 98.0126 76.5283C98.0797 76.3606 98.13 76.2096 98.1635 76.0755C98.2306 75.9413 98.3312 75.7903 98.4654 75.6226C98.5996 74.8847 98.7673 74.2641 98.9686 73.761C99.1698 73.2579 99.3878 72.7547 99.6226 72.2516C99.8239 71.782 100.008 71.3124 100.176 70.8428C100.377 70.3732 100.562 69.8029 100.73 69.1321C100.83 69.1321 100.981 68.9811 101.182 68.6792C101.283 67.9413 101.199 67.3543 100.931 66.9182C100.662 66.4486 100.344 65.9958 99.9748 65.5597L99.7736 65.3585C99.7065 65.2579 99.5388 65.1237 99.2704 64.956C98.7337 64.956 98.0629 64.8218 97.2579 64.5535C96.4528 64.2516 95.7484 63.9497 95.1447 63.6478C95.0105 63.6813 94.8428 63.7316 94.6415 63.7987C94.5073 63.8658 94.3061 63.9832 94.0377 64.1509C93.6352 65.8616 93.1824 67.4549 92.6792 68.9308C92.1761 70.4067 91.6394 71.8994 91.0692 73.4088C90.7337 74.2809 90.3983 75.1698 90.0629 76.0755C89.761 76.9476 89.3753 78.021 88.9057 79.2956C88.7379 79.5975 88.587 79.9329 88.4528 80.3019C88.3187 80.6709 88.3187 81.0063 88.4528 81.3082C88.1845 81.6771 87.9665 82.1132 87.7987 82.6163C87.6646 83.1195 87.5304 83.6394 87.3962 84.1761C87.3627 84.3438 87.3291 84.4948 87.2956 84.6289C87.2956 84.7631 87.2621 84.8973 87.195 85.0314C87.0273 85.6352 86.9099 86.2725 86.8428 86.9434C86.8092 87.6142 86.826 88.2851 86.8931 88.956C86.9937 89.5933 87.1614 90.2306 87.3962 90.8679C87.631 91.4717 87.9497 92.0084 88.3522 92.478C88.3857 92.7463 88.4361 92.9643 88.5031 93.1321L88.805 93.5346C88.9392 93.6688 89.0901 93.9203 89.2579 94.2893C90.2306 95.1279 91.5556 95.5472 93.2327 95.5472C94.3396 95.5472 95.4465 95.3962 96.5535 95.0943Z" fill="#D658B3"/>
<path d="M78.7925 94.7924C79.5975 94.8595 80.2683 94.8763 80.805 94.8428C81.3753 94.4067 81.9455 93.9874 82.5157 93.5849C83.086 93.1488 83.6059 92.6792 84.0755 92.1761C84.1761 91.6059 84.1426 91.1363 83.9748 90.7673C83.8071 90.3648 83.5891 90.0126 83.3208 89.7107C83.0524 89.3753 82.7505 89.0734 82.4151 88.805C82.1132 88.5031 81.8449 88.1845 81.6101 87.849C79.0943 87.8155 76.5786 87.7149 74.0629 87.5472C71.5807 87.3794 69.2327 86.9602 67.0189 86.2893C66.8176 85.9203 66.6331 85.5514 66.4654 85.1824C66.2977 84.7799 66.1803 84.327 66.1132 83.8239C66.2809 83.5555 66.4486 83.304 66.6164 83.0692C66.8176 82.8008 66.9015 82.4319 66.8679 81.9623C67.4046 81.4591 67.9078 80.956 68.3774 80.4528C68.8805 79.9161 69.4004 79.413 69.9371 78.9434C70.5073 78.4402 71.0943 78.0042 71.6981 77.6352C72.3354 77.2327 73.0566 76.914 73.8616 76.6792C74.7673 75.6729 75.9245 74.9182 77.3333 74.4151C78.7757 73.8784 80.3019 73.392 81.9119 72.956C82.6163 72.7547 83.2704 72.3522 83.8742 71.7484C84.478 71.1446 84.8973 70.4906 85.1321 69.7862C85.3669 69.0818 85.3501 68.4109 85.0818 67.7736C84.8134 67.1027 84.1761 66.6163 83.1698 66.3145C83.1698 66.1132 83.2034 65.979 83.2704 65.9119C83.3375 65.8113 83.304 65.6771 83.1698 65.5094C82.7673 65.4759 82.4654 65.392 82.2641 65.2579C82.0964 65.0901 81.8784 65.0231 81.6101 65.0566C81.6436 64.9895 81.6939 64.8721 81.761 64.7044C81.8281 64.5367 81.7778 64.4528 81.6101 64.4528C81.543 64.6205 81.4591 64.7044 81.3585 64.7044C81.2914 64.6709 81.2075 64.6038 81.1069 64.5031C81.0063 64.4025 80.8889 64.3019 80.7547 64.2013C80.6541 64.1006 80.5199 64.0671 80.3522 64.1006C80.0839 64.2013 79.7987 64.3019 79.4969 64.4025C79.195 64.4696 78.9602 64.369 78.7925 64.1006C78.5912 64.4361 78.3061 64.7044 77.9371 64.9057C77.6017 65.1069 77.2327 65.3082 76.8302 65.5094C76.4612 65.6771 76.0922 65.8616 75.7233 66.0629C75.3543 66.2306 75.0356 66.4654 74.7673 66.7673C74.0629 66.935 73.4423 67.1698 72.9057 67.4717C72.369 67.7736 71.8491 68.109 71.3459 68.478C70.8428 68.8134 70.3229 69.1488 69.7862 69.4843C69.283 69.7862 68.6792 70.021 67.9748 70.1887C67.7736 70.457 67.5388 70.6918 67.2704 70.8931C67.0356 71.0608 66.7841 71.2453 66.5157 71.4465C66.2809 71.6142 66.0461 71.8155 65.8113 72.0503C65.6101 72.2516 65.2914 72.4528 64.8553 72.6541C63.8826 73.7275 62.9266 74.8176 61.9874 75.9245C61.0818 76.9979 60.3774 78.2893 59.8742 79.7987C59.8407 80.805 59.8742 81.8616 59.9748 82.9685C60.0755 84.0419 60.2767 85.0985 60.5786 86.1384C60.8805 87.1782 61.283 88.1677 61.7862 89.1069C62.2893 90.0126 62.9434 90.7841 63.7484 91.4214C64.3187 91.5555 64.7715 91.7903 65.1069 92.1258C65.4423 92.4277 65.7778 92.7631 66.1132 93.1321C67.6562 93.6688 69.3501 94.1216 71.195 94.4906C73.0398 94.8595 74.8512 95.0776 76.6289 95.1446C77.2998 94.8428 78.021 94.7254 78.7925 94.7924Z" fill="#D658B3"/>
<path d="M181.32 66.5306C180.743 66.6583 180.345 66.8299 180.128 67.0453C179.872 67.264 179.718 67.5332 179.667 67.8528C179.573 68.1366 179.56 68.453 179.629 68.8018C179.698 69.1507 179.747 69.5012 179.777 69.8534C180.807 70.4362 182.191 70.7921 183.928 70.921C185.662 71.0108 187.469 71.0353 189.349 70.9945C191.225 70.9146 193.04 70.8005 194.793 70.6522C196.546 70.5039 197.934 70.4456 198.957 70.4773C201.08 70.5341 202.736 70.6305 203.925 70.7664C205.071 70.8665 205.867 70.9962 206.312 71.1556C207.049 71.0539 207.622 70.8675 208.03 70.5964C208.439 70.3254 208.766 70.0218 209.013 69.6857C209.256 69.3105 209.456 68.8994 209.615 68.4525C209.773 68.0056 209.969 67.5358 210.202 67.0432C210.019 66.7434 209.942 66.2966 209.97 65.7031C209.999 65.1096 210.194 64.6398 210.558 64.2938C210.243 64.281 209.991 64.0856 209.802 63.7075C209.609 63.2902 209.583 62.9772 209.722 62.7684C209.086 62.6646 208.415 62.6228 207.711 62.6429C206.964 62.6273 206.238 62.6296 205.534 62.6498C204.829 62.67 204.162 62.6673 203.532 62.6417C202.86 62.5804 202.28 62.4521 201.793 62.2568C199.842 62.3825 197.83 62.4935 195.759 62.5899C193.649 62.6896 191.675 62.7778 189.837 62.8544C189.192 63.1061 188.422 63.2894 187.53 63.4043C186.634 63.4801 185.762 63.6129 184.915 63.8028C184.065 63.9536 183.304 64.2347 182.632 64.6462C181.961 65.0577 181.524 65.6858 181.32 66.5306Z" fill="#D658B3"/>
<path d="M48.9759 67.0453C48.7587 66.8299 48.3613 66.6583 47.7835 66.5306C47.5804 65.6858 47.1431 65.0577 46.4716 64.6462C45.8002 64.2347 45.0393 63.9536 44.1889 63.8028C43.3418 63.6129 42.4702 63.4801 41.5742 63.4043C40.6815 63.2894 39.9123 63.1061 39.2666 62.8544C37.429 62.7778 35.4551 62.6896 33.3449 62.5899C31.2736 62.4935 29.2623 62.3825 27.3112 62.2568C26.8239 62.4521 26.2441 62.5804 25.5719 62.6417C24.942 62.6673 24.2748 62.67 23.5702 62.6498C22.8657 62.6296 22.1401 62.6273 21.3933 62.6429C20.6887 62.6228 20.0182 62.6646 19.3817 62.7684C19.5209 62.9772 19.4945 63.2902 19.3022 63.7075C19.1133 64.0856 18.8613 64.281 18.5464 64.2938C18.9095 64.6398 19.1051 65.1096 19.1334 65.7031C19.1617 66.2966 19.0846 66.7434 18.9023 67.0432C19.1353 67.5358 19.331 68.0056 19.4893 68.4525C19.6477 68.8994 19.8483 69.3105 20.0913 69.6857C20.3375 70.0218 20.6649 70.3254 21.0736 70.5964C21.4822 70.8675 22.055 71.0539 22.7918 71.1556C23.2369 70.9962 24.0326 70.8665 25.1789 70.7664C26.3674 70.6305 28.0235 70.5341 30.147 70.4773C31.1698 70.4456 32.5577 70.5039 34.3107 70.6522C36.0638 70.8005 37.8785 70.9146 39.7551 70.9945C41.6349 71.0353 43.4418 71.0108 45.1757 70.921C46.913 70.7921 48.2967 70.4362 49.3269 69.8534C49.3567 69.5012 49.406 69.1507 49.4747 68.8018C49.5434 68.453 49.531 68.1366 49.4373 67.8528C49.3858 67.5332 49.2321 67.264 48.9759 67.0453Z" fill="#D658B3"/>
</svg>
