<svg width="112" height="112" viewBox="0 0 112 112" fill="none" xmlns="http://www.w3.org/2000/svg">
<g clip-path="url(#clip0_2130_499)">
<g filter="url(#filter0_ddddd_2130_499)">
<path d="M86.5813 48.1313C85.4031 46.9 84.1844 45.6313 83.725 44.5156C83.3 43.4937 83.275 41.8 83.25 40.1594C83.2031 37.1094 83.1531 33.6531 80.75 31.25C78.3469 28.8469 74.8906 28.7969 71.8406 28.75C70.2 28.725 68.5062 28.7 67.4844 28.275C66.3719 27.8156 65.1 26.5969 63.8687 25.4187C61.7125 23.3469 59.2625 21 56 21C52.7375 21 50.2906 23.3469 48.1313 25.4187C46.9 26.5969 45.6313 27.8156 44.5156 28.275C43.5 28.7 41.8 28.725 40.1594 28.75C37.1094 28.7969 33.6531 28.8469 31.25 31.25C28.8469 33.6531 28.8125 37.1094 28.75 40.1594C28.725 41.8 28.7 43.4937 28.275 44.5156C27.8156 45.6281 26.5969 46.9 25.4187 48.1313C23.3469 50.2875 21 52.7375 21 56C21 59.2625 23.3469 61.7094 25.4187 63.8687C26.5969 65.1 27.8156 66.3688 28.275 67.4844C28.7 68.5062 28.725 70.2 28.75 71.8406C28.7969 74.8906 28.8469 78.3469 31.25 80.75C33.6531 83.1531 37.1094 83.2031 40.1594 83.25C41.8 83.275 43.4937 83.3 44.5156 83.725C45.6281 84.1844 46.9 85.4031 48.1313 86.5813C50.2875 88.6531 52.7375 91 56 91C59.2625 91 61.7094 88.6531 63.8687 86.5813C65.1 85.4031 66.3688 84.1844 67.4844 83.725C68.5062 83.3 70.2 83.275 71.8406 83.25C74.8906 83.2031 78.3469 83.1531 80.75 80.75C83.1531 78.3469 83.2031 74.8906 83.25 71.8406C83.275 70.2 83.3 68.5062 83.725 67.4844C84.1844 66.3719 85.4031 65.1 86.5813 63.8687C88.6531 61.7125 91 59.2625 91 56C91 52.7375 88.6531 50.2906 86.5813 48.1313ZM70.2688 50.2688L52.7688 67.7687C52.5366 68.0012 52.2608 68.1856 51.9574 68.3114C51.6539 68.4372 51.3285 68.502 51 68.502C50.6715 68.502 50.3461 68.4372 50.0427 68.3114C49.7392 68.1856 49.4634 68.0012 49.2313 67.7687L41.7312 60.2688C41.2621 59.7997 40.9986 59.1634 40.9986 58.5C40.9986 57.8366 41.2621 57.2003 41.7312 56.7312C42.2003 56.2621 42.8366 55.9986 43.5 55.9986C44.1634 55.9986 44.7997 56.2621 45.2688 56.7312L51 62.4656L66.7313 46.7313C66.9635 46.499 67.2393 46.3147 67.5428 46.189C67.8462 46.0633 68.1715 45.9986 68.5 45.9986C68.8285 45.9986 69.1538 46.0633 69.4572 46.189C69.7607 46.3147 70.0365 46.499 70.2688 46.7313C70.501 46.9635 70.6853 47.2393 70.811 47.5428C70.9367 47.8462 71.0014 48.1715 71.0014 48.5C71.0014 48.8285 70.9367 49.1538 70.811 49.4572C70.6853 49.7607 70.501 50.0365 70.2688 50.2688Z" fill="#45B442"/>
<path d="M85.3168 49.3411L85.3185 49.3428C87.5051 51.6218 89.25 53.5618 89.25 56C89.25 58.4382 87.5045 60.3822 85.3194 62.6562L85.3168 62.6589L85.2859 62.6912C84.7148 63.288 84.0846 63.9467 83.5395 64.6004C82.9975 65.2505 82.4411 66.0094 82.1083 66.8144C81.7883 67.5849 81.6596 68.4858 81.5934 69.2863C81.5263 70.0986 81.5129 70.978 81.5008 71.7736L81.5002 71.8137C81.5002 71.8138 81.5002 71.8139 81.5002 71.814C81.4509 75.022 81.3306 77.6946 79.5126 79.5126C77.6946 81.3306 75.022 81.4509 71.814 81.5002C71.8139 81.5002 71.8138 81.5002 71.8137 81.5002L71.7736 81.5008C70.978 81.5129 70.0986 81.5263 69.2863 81.5934C68.4862 81.6596 67.5856 81.7882 66.8154 82.1079C66.008 82.4409 65.2487 82.9976 64.5988 83.5398C63.9511 84.0802 63.2987 84.7046 62.7067 85.271L62.6589 85.3168L62.6572 85.3185C60.3782 87.5051 58.4382 89.25 56 89.25C53.5618 89.25 51.6178 87.5045 49.3438 85.3194L49.3411 85.3168L49.3088 85.286C48.712 84.7148 48.0534 84.0846 47.3996 83.5395C46.7495 82.9975 45.9906 82.4411 45.1856 82.1083C44.4151 81.7883 43.5142 81.6596 42.7137 81.5934C41.9014 81.5263 41.022 81.5129 40.2264 81.5008L40.1863 81.5002C40.1862 81.5002 40.1861 81.5002 40.186 81.5002C36.978 81.4509 34.3054 81.3306 32.4874 79.5126C30.6694 77.6945 30.5491 75.0219 30.4998 71.8137L30.4992 71.7739C30.4871 70.9782 30.4737 70.0987 30.4066 69.2863C30.3404 68.4861 30.2118 67.5855 29.892 66.8152C29.559 66.0079 29.0023 65.2487 28.4602 64.5988C27.9198 63.9512 27.2956 63.2989 26.7291 62.7069L26.6832 62.6589L26.6815 62.6572C24.4949 60.3782 22.75 58.4382 22.75 56C22.75 53.5618 24.4955 51.6178 26.6806 49.3438L26.6832 49.3411L26.7141 49.3088C27.2852 48.712 27.9154 48.0533 28.4605 47.3996C29.0025 46.7495 29.5589 45.9906 29.8917 45.1856C30.2117 44.4151 30.3404 43.5142 30.4066 42.7137C30.4737 41.9013 30.4871 41.0218 30.4992 40.2261L30.4996 40.1952C30.4997 40.1937 30.4997 40.1922 30.4997 40.1907C30.5658 36.9672 30.6705 34.3044 32.4874 32.4874C34.3055 30.6694 36.9781 30.5491 40.1863 30.4998L40.227 30.4992C41.0225 30.4871 41.9031 30.4737 42.7159 30.4066C43.5149 30.3406 44.4173 30.2122 45.1865 29.8913C45.9932 29.5582 46.7518 29.002 47.4012 28.4602C48.0488 27.9198 48.7012 27.2956 49.2931 26.7291L49.3411 26.6832L49.3428 26.6815C51.6218 24.4949 53.5618 22.75 56 22.75C58.4382 22.75 60.3822 24.4955 62.6562 26.6806L62.6589 26.6832L62.6911 26.714C63.288 27.2852 63.9466 27.9154 64.6004 28.4605C65.2505 29.0025 66.0094 29.5589 66.8144 29.8917C67.5849 30.2117 68.4858 30.3404 69.2863 30.4066C70.0987 30.4737 70.9782 30.4871 71.7739 30.4992L71.8137 30.4998C75.0219 30.5491 77.6945 30.6694 79.5126 32.4874C81.3306 34.3054 81.4509 36.978 81.5002 40.186C81.5002 40.1861 81.5002 40.1862 81.5002 40.1863L81.5008 40.2264C81.5129 41.022 81.5263 41.9014 81.5934 42.7137C81.6596 43.5138 81.7882 44.4144 82.1079 45.1846C82.4409 45.992 82.9976 46.7513 83.5398 47.4012C84.0801 48.0488 84.7044 48.7011 85.2708 49.293L85.3168 49.3411ZM46.5065 55.4941L46.5062 55.4938C45.7089 54.6965 44.6275 54.2486 43.5 54.2486C42.3725 54.2486 41.2911 54.6965 40.4938 55.4938C39.6965 56.2911 39.2486 57.3725 39.2486 58.5C39.2486 59.6275 39.6965 60.7089 40.4938 61.5062L47.9931 69.0055C48.3878 69.4006 48.8566 69.7141 49.3725 69.928C49.8885 70.1419 50.4415 70.252 51 70.252C51.5585 70.252 52.1115 70.1419 52.6275 69.928C53.1434 69.7141 53.6122 69.4006 54.0069 69.0055L71.5062 51.5062C71.901 51.1114 72.2141 50.6427 72.4278 50.1269C72.6414 49.6112 72.7514 49.0583 72.7514 48.5C72.7514 47.9417 72.6414 47.3888 72.4278 46.8731C72.2141 46.3573 71.901 45.8886 71.5062 45.4938C71.1114 45.099 70.6427 44.7859 70.1269 44.5722C69.6111 44.3586 69.0583 44.2486 68.5 44.2486C67.9417 44.2486 67.3889 44.3586 66.8731 44.5722C66.3573 44.7859 65.8886 45.099 65.4938 45.4938L65.4937 45.4939L51.0002 59.9903L46.5065 55.4941Z" stroke="white" stroke-width="3.5"/>
</g>
</g>
<defs>
<filter id="filter0_ddddd_2130_499" x="15.75" y="19.25" width="80.5" height="98" filterUnits="userSpaceOnUse" color-interpolation-filters="sRGB">
<feFlood flood-opacity="0" result="BackgroundImageFix"/>
<feColorMatrix in="SourceAlpha" type="matrix" values="0 0 0 0 0 0 0 0 0 0 0 0 0 0 0 0 0 0 127 0" result="hardAlpha"/>
<feOffset/>
<feGaussianBlur stdDeviation="0.875"/>
<feColorMatrix type="matrix" values="0 0 0 0 0 0 0 0 0 0 0 0 0 0 0 0 0 0 0.29 0"/>
<feBlend mode="normal" in2="BackgroundImageFix" result="effect1_dropShadow_2130_499"/>
<feColorMatrix in="SourceAlpha" type="matrix" values="0 0 0 0 0 0 0 0 0 0 0 0 0 0 0 0 0 0 127 0" result="hardAlpha"/>
<feOffset dy="3.5"/>
<feGaussianBlur stdDeviation="1.75"/>
<feColorMatrix type="matrix" values="0 0 0 0 0 0 0 0 0 0 0 0 0 0 0 0 0 0 0.26 0"/>
<feBlend mode="normal" in2="effect1_dropShadow_2130_499" result="effect2_dropShadow_2130_499"/>
<feColorMatrix in="SourceAlpha" type="matrix" values="0 0 0 0 0 0 0 0 0 0 0 0 0 0 0 0 0 0 127 0" result="hardAlpha"/>
<feOffset dy="7"/>
<feGaussianBlur stdDeviation="2.625"/>
<feColorMatrix type="matrix" values="0 0 0 0 0 0 0 0 0 0 0 0 0 0 0 0 0 0 0.15 0"/>
<feBlend mode="normal" in2="effect2_dropShadow_2130_499" result="effect3_dropShadow_2130_499"/>
<feColorMatrix in="SourceAlpha" type="matrix" values="0 0 0 0 0 0 0 0 0 0 0 0 0 0 0 0 0 0 127 0" result="hardAlpha"/>
<feOffset dy="14"/>
<feGaussianBlur stdDeviation="2.625"/>
<feColorMatrix type="matrix" values="0 0 0 0 0 0 0 0 0 0 0 0 0 0 0 0 0 0 0.04 0"/>
<feBlend mode="normal" in2="effect3_dropShadow_2130_499" result="effect4_dropShadow_2130_499"/>
<feColorMatrix in="SourceAlpha" type="matrix" values="0 0 0 0 0 0 0 0 0 0 0 0 0 0 0 0 0 0 127 0" result="hardAlpha"/>
<feOffset dy="21"/>
<feGaussianBlur stdDeviation="2.625"/>
<feColorMatrix type="matrix" values="0 0 0 0 0 0 0 0 0 0 0 0 0 0 0 0 0 0 0.01 0"/>
<feBlend mode="normal" in2="effect4_dropShadow_2130_499" result="effect5_dropShadow_2130_499"/>
<feBlend mode="normal" in="SourceGraphic" in2="effect5_dropShadow_2130_499" result="shape"/>
</filter>
<clipPath id="clip0_2130_499">
<rect width="112" height="112" fill="white"/>
</clipPath>
</defs>
</svg>
