<svg width="112" height="112" viewBox="0 0 112 112" fill="none" xmlns="http://www.w3.org/2000/svg">
<g clip-path="url(#clip0_2130_527)">
<g filter="url(#filter0_ddddd_2130_527)">
<path d="M83.7159 42.1432H72.6665C72.7894 42.0392 72.9153 41.9384 73.035 41.8282C73.9917 40.9783 74.7626 39.9402 75.2997 38.7787C75.8368 37.6173 76.1285 36.3575 76.1565 35.0782C76.1978 33.6787 75.9527 32.2855 75.4362 30.9841C74.9197 29.6827 74.1426 28.5006 73.1527 27.5104C72.1628 26.5202 70.9809 25.7428 69.6797 25.2259C68.3785 24.709 66.9854 24.4634 65.5858 24.5044C64.306 24.532 63.0456 24.8234 61.8836 25.3605C60.7216 25.8976 59.6829 26.6688 58.8327 27.6258C57.6562 28.9894 56.6997 30.5282 55.9979 32.1867C55.296 30.5282 54.3396 28.9894 53.1631 27.6258C52.3128 26.6688 51.2742 25.8976 50.1122 25.3605C48.9502 24.8234 47.6898 24.532 46.41 24.5044C45.0104 24.4634 43.6173 24.709 42.316 25.2259C41.0148 25.7428 39.833 26.5202 38.8431 27.5104C37.8532 28.5006 37.0761 29.6827 36.5596 30.9841C36.043 32.2855 35.7979 33.6787 35.8393 35.0782C35.8673 36.3575 36.159 37.6173 36.696 38.7787C37.2331 39.9402 38.0041 40.9783 38.9607 41.8282C39.0804 41.9321 39.2064 42.0329 39.3292 42.1432H28.2798C26.9432 42.1432 25.6614 42.6741 24.7163 43.6192C23.7711 44.5644 23.2402 45.8462 23.2402 47.1828V57.2621C23.2402 58.5987 23.7711 59.8806 24.7163 60.8257C25.6614 61.7708 26.9432 62.3018 28.2798 62.3018V82.4604C28.2798 83.7969 28.8108 85.0788 29.7559 86.0239C30.701 86.969 31.9829 87.5 33.3195 87.5H52.2181C52.5523 87.5 52.8728 87.3673 53.109 87.131C53.3453 86.8947 53.4781 86.5742 53.4781 86.2401V57.2621H28.2798V47.1828H53.4781V57.2621H58.5177V47.1828H83.7159V57.2621H58.5177V86.2401C58.5177 86.5742 58.6504 86.8947 58.8867 87.131C59.123 87.3673 59.4435 87.5 59.7776 87.5H78.6763C80.0129 87.5 81.2947 86.969 82.2399 86.0239C83.185 85.0788 83.7159 83.7969 83.7159 82.4604V62.3018C85.0525 62.3018 86.3344 61.7708 87.2795 60.8257C88.2246 59.8806 88.7556 58.5987 88.7556 57.2621V47.1828C88.7556 45.8462 88.2246 44.5644 87.2795 43.6192C86.3344 42.6741 85.0525 42.1432 83.7159 42.1432ZM42.2995 38.0485C41.8589 37.6495 41.5056 37.1637 41.2616 36.6217C41.0177 36.0796 40.8885 35.493 40.8821 34.8987C40.8662 34.2023 40.9894 33.5097 41.2445 32.8615C41.4997 32.2133 41.8816 31.6226 42.368 31.1239C42.8544 30.6252 43.4354 30.2286 44.077 29.9573C44.7185 29.686 45.4078 29.5455 46.1044 29.544H46.2588C46.8531 29.5505 47.4397 29.6797 47.9818 29.9236C48.5238 30.1675 49.0096 30.5209 49.4085 30.9614C52.0512 33.9474 52.9835 38.8989 53.3111 41.9605C50.2369 41.6361 45.2886 40.7037 42.2995 38.0485ZM69.7026 38.0485C66.7134 40.6943 61.7525 41.6266 58.6783 41.9542C59.0532 38.6438 60.0926 33.7962 62.6124 30.9646C63.0114 30.524 63.4972 30.1707 64.0392 29.9267C64.5812 29.6828 65.1678 29.5536 65.7622 29.5472H65.9165C66.6132 29.5515 67.3019 29.6949 67.9424 29.9689C68.583 30.2428 69.1624 30.6419 69.6467 31.1426C70.131 31.6434 70.5105 32.2357 70.7629 32.885C71.0154 33.5343 71.1357 34.2275 71.1168 34.9239C71.1066 35.5142 70.9752 36.0961 70.7308 36.6336C70.4865 37.1711 70.1344 37.6526 69.6963 38.0485H69.7026Z" fill="#D658B3"/>
<path d="M71.5361 40.8072L67.8891 43.8932H72.6665H83.7159C84.5884 43.8932 85.4251 44.2398 86.0421 44.8567C86.659 45.4736 87.0056 46.3103 87.0056 47.1828V57.2621C87.0056 58.1346 86.659 58.9713 86.0421 59.5882C85.4251 60.2052 84.5884 60.5518 83.7159 60.5518H81.9659V62.3018V82.4604C81.9659 83.3328 81.6194 84.1696 81.0024 84.7865C80.3855 85.4034 79.5488 85.75 78.6763 85.75H60.2677V59.0121H83.7159H85.4659V57.2621V47.1828V45.4328H83.7159H58.5177H56.7677V47.1828V55.5121H55.2281V47.1828V45.4328H53.4781H28.2798H26.5298V47.1828V57.2621V59.0121H28.2798H51.7281V85.75H33.3195C32.447 85.75 31.6103 85.4034 30.9933 84.7865C30.3764 84.1696 30.0298 83.3328 30.0298 82.4604V62.3018V60.5518H28.2798C27.4074 60.5518 26.5706 60.2052 25.9537 59.5882C25.3368 58.9713 24.9902 58.1346 24.9902 57.2621V47.1828C24.9902 46.3103 25.3368 45.4736 25.9537 44.8567C26.5706 44.2398 27.4074 43.8932 28.2798 43.8932H39.3292H43.8993L40.4981 40.8407C40.4134 40.7648 40.2403 40.6186 40.1556 40.547C40.1361 40.5306 40.1213 40.5181 40.1134 40.5113C39.3412 39.8229 38.7187 38.9832 38.2844 38.0442C37.8484 37.1013 37.6116 36.0785 37.5889 35.0399L37.5889 35.0399L37.5885 35.0265C37.5542 33.8653 37.7576 32.7094 38.1861 31.6297C38.6147 30.55 39.2594 29.5692 40.0807 28.7477C40.902 27.9261 41.8825 27.2811 42.9621 26.8523C44.0417 26.4234 45.1976 26.2197 46.3588 26.2536L46.3588 26.2537L46.3723 26.254C47.4113 26.2764 48.4346 26.513 49.3779 26.949L50.1122 25.3605L49.3779 26.949C50.3176 27.3834 51.1579 28.0062 51.8466 28.7789C52.9002 30.0021 53.7571 31.3819 54.3862 32.8687L55.9979 36.6772L57.6095 32.8687C58.2387 31.3819 59.0956 30.002 60.1492 28.7788C60.838 28.0062 61.6782 27.3834 62.6178 26.949C63.5612 26.513 64.5845 26.2764 65.6235 26.254L65.637 26.2536C66.7982 26.2197 67.954 26.4234 69.0336 26.8523C70.1132 27.2811 71.0938 27.9261 71.9151 28.7477C72.7364 29.5692 73.3811 30.55 73.8096 31.6297C74.2382 32.7094 74.4416 33.8653 74.4072 35.0265L74.4072 35.0265L74.4069 35.0399C74.3976 35.4635 74.3527 35.8845 74.2733 36.2985H72.6916C72.799 35.8623 72.8579 35.4144 72.8664 34.963C72.8904 34.0366 72.7298 33.1147 72.394 32.2509C72.0572 31.3845 71.5508 30.5941 70.9046 29.926C70.2584 29.2578 69.4853 28.7254 68.6306 28.3599C67.776 27.9943 66.857 27.803 65.9275 27.7972V27.7972H65.9165H65.7622H65.7528L65.7433 27.7973C64.9078 27.8063 64.0831 27.988 63.3211 28.3309C62.559 28.6738 61.8761 29.1705 61.3152 29.7899L61.3101 29.7956L61.3051 29.8012C59.8139 31.477 58.8298 33.6591 58.1714 35.7555C57.5068 37.8717 57.1354 40.0271 56.9395 41.7573L56.694 43.9255L58.8638 43.6943C60.4668 43.5235 62.5917 43.1926 64.7293 42.5456C66.8487 41.9042 69.1035 40.9158 70.8625 39.3589L74.2635 36.3485C74.1474 36.932 73.9624 37.5013 73.7113 38.0442C73.2753 38.9871 72.6494 39.8299 71.8727 40.5199L71.861 40.5303L71.8495 40.541C71.7962 40.59 71.7537 40.6254 71.6858 40.6818C71.6466 40.7144 71.5991 40.754 71.5361 40.8072ZM41.131 39.3512L41.1373 39.3568C42.8959 40.9189 45.1474 41.9103 47.2651 42.5531C49.4006 43.2013 51.5232 43.5315 53.1275 43.7008L55.2816 43.9282L55.0512 41.7743C54.8803 40.1775 54.5494 38.0581 53.9027 35.925C53.2616 33.8099 52.2741 31.5587 50.719 29.8016L50.7124 29.7942L50.7057 29.7868C50.1448 29.1674 49.4619 28.6706 48.6999 28.3277L47.9995 29.8842L48.6999 28.3277C47.9379 27.9848 47.1132 27.8032 46.2776 27.7941L46.2682 27.794H46.2588L46.1044 27.794L46.1007 27.794C45.1712 27.796 44.2515 27.9835 43.3954 28.3455C42.5394 28.7075 41.7641 29.2366 41.1152 29.902L42.368 31.1239L41.1152 29.902C40.4662 30.5674 39.9566 31.3556 39.6162 32.2205C39.277 33.0821 39.1125 34.0026 39.1323 34.9283C39.1428 35.7602 39.3243 36.5811 39.6658 37.3398C40.0087 38.1018 40.5054 38.7847 41.1248 39.3456L41.131 39.3512Z" stroke="white" stroke-width="3.5"/>
</g>
</g>
<defs>
<filter id="filter0_ddddd_2130_527" x="17.9902" y="22.75" width="76.0154" height="91" filterUnits="userSpaceOnUse" color-interpolation-filters="sRGB">
<feFlood flood-opacity="0" result="BackgroundImageFix"/>
<feColorMatrix in="SourceAlpha" type="matrix" values="0 0 0 0 0 0 0 0 0 0 0 0 0 0 0 0 0 0 127 0" result="hardAlpha"/>
<feOffset/>
<feGaussianBlur stdDeviation="0.875"/>
<feColorMatrix type="matrix" values="0 0 0 0 0 0 0 0 0 0 0 0 0 0 0 0 0 0 0.29 0"/>
<feBlend mode="normal" in2="BackgroundImageFix" result="effect1_dropShadow_2130_527"/>
<feColorMatrix in="SourceAlpha" type="matrix" values="0 0 0 0 0 0 0 0 0 0 0 0 0 0 0 0 0 0 127 0" result="hardAlpha"/>
<feOffset dy="3.5"/>
<feGaussianBlur stdDeviation="1.75"/>
<feColorMatrix type="matrix" values="0 0 0 0 0 0 0 0 0 0 0 0 0 0 0 0 0 0 0.26 0"/>
<feBlend mode="normal" in2="effect1_dropShadow_2130_527" result="effect2_dropShadow_2130_527"/>
<feColorMatrix in="SourceAlpha" type="matrix" values="0 0 0 0 0 0 0 0 0 0 0 0 0 0 0 0 0 0 127 0" result="hardAlpha"/>
<feOffset dy="7"/>
<feGaussianBlur stdDeviation="2.625"/>
<feColorMatrix type="matrix" values="0 0 0 0 0 0 0 0 0 0 0 0 0 0 0 0 0 0 0.15 0"/>
<feBlend mode="normal" in2="effect2_dropShadow_2130_527" result="effect3_dropShadow_2130_527"/>
<feColorMatrix in="SourceAlpha" type="matrix" values="0 0 0 0 0 0 0 0 0 0 0 0 0 0 0 0 0 0 127 0" result="hardAlpha"/>
<feOffset dy="14"/>
<feGaussianBlur stdDeviation="2.625"/>
<feColorMatrix type="matrix" values="0 0 0 0 0 0 0 0 0 0 0 0 0 0 0 0 0 0 0.04 0"/>
<feBlend mode="normal" in2="effect3_dropShadow_2130_527" result="effect4_dropShadow_2130_527"/>
<feColorMatrix in="SourceAlpha" type="matrix" values="0 0 0 0 0 0 0 0 0 0 0 0 0 0 0 0 0 0 127 0" result="hardAlpha"/>
<feOffset dy="21"/>
<feGaussianBlur stdDeviation="2.625"/>
<feColorMatrix type="matrix" values="0 0 0 0 0 0 0 0 0 0 0 0 0 0 0 0 0 0 0.01 0"/>
<feBlend mode="normal" in2="effect4_dropShadow_2130_527" result="effect5_dropShadow_2130_527"/>
<feBlend mode="normal" in="SourceGraphic" in2="effect5_dropShadow_2130_527" result="shape"/>
</filter>
<clipPath id="clip0_2130_527">
<rect width="112" height="112" fill="white"/>
</clipPath>
</defs>
</svg>
