<svg width="42" height="33" viewBox="0 0 42 33" fill="none" xmlns="http://www.w3.org/2000/svg">
<path d="M33.6101 30.8931C33.9119 30.7589 34.2306 30.608 34.566 30.4403C34.8344 30.3061 35.086 30.1887 35.3208 30.088C35.5556 29.9539 35.8239 29.8365 36.1258 29.7358L36.327 29.2327C36.4277 29.065 36.5115 28.8973 36.5786 28.7296C37.2495 27.1866 37.8868 25.543 38.4906 23.7987C39.1279 22.021 39.3795 20.0587 39.2453 17.9119C39.4465 17.4759 39.5975 17.0734 39.6981 16.7044C39.8323 16.3354 39.9329 15.9497 40 15.5472C40.0671 15.1111 40.0839 14.6583 40.0503 14.1887C40.0503 13.6855 40.0335 12.9979 40 12.1258C40.2013 11.7904 40.369 11.3375 40.5031 10.7673C40.6709 10.1971 40.7212 9.67715 40.6541 9.20755L40.5031 8.25157L41.4591 8.3522C41.392 8.21803 41.3417 8.10063 41.3082 8L41.2076 7.69811C41.0734 7.39623 40.956 7.11111 40.8553 6.84277C40.7883 6.54088 40.7883 6.22222 40.8553 5.88679C40.2516 5.48428 39.8323 4.89727 39.5975 4.12579C39.4633 3.85744 39.1447 3.5891 38.6415 3.32075C38.5744 3.28721 38.5241 3.25367 38.4906 3.22013C38.457 3.18658 38.3732 3.1195 38.239 3.01887C37.9706 2.78407 37.8365 2.49895 37.8365 2.16352C37.7694 2.12998 37.6855 2.09644 37.5849 2.06289C37.5178 2.02935 37.434 1.97904 37.3333 1.91195C36.9644 1.74423 36.5786 1.57652 36.1761 1.40881C35.7736 1.24109 35.3878 1.15723 35.0189 1.15723C34.6499 1.15723 34.2977 1.25786 33.9623 1.45912C33.392 2.86792 32.6373 4.04193 31.6981 4.98113C30.7589 5.92034 29.7862 6.79245 28.7799 7.59748C28.2432 8.03354 27.7233 8.4696 27.2201 8.90566C26.7505 9.34172 26.2138 9.84486 25.6101 10.4151C25.3417 10.4486 25.0734 10.5493 24.805 10.717C24.5367 10.8512 24.2683 11.0189 24 11.2201C23.5975 11.4885 23.1614 11.7568 22.6918 12.0252C22.2558 12.26 21.7694 12.3774 21.2327 12.3774C20.7631 12.3774 20.2264 12.1426 19.6226 11.673C19.5556 11.3711 19.522 11.1027 19.522 10.8679C19.522 10.5996 19.5388 10.348 19.5723 10.1132C19.673 9.57652 19.6394 9.15723 19.4717 8.85535L19.4214 8.3522C19.5891 7.91614 19.6562 7.49686 19.6226 7.09434C19.6226 6.69182 19.5388 6.30608 19.3711 5.93711C19.2369 5.53459 19.0356 5.14885 18.7673 4.77987C18.5325 4.37736 18.2809 3.97484 18.0126 3.57233C17.8113 3.20335 17.5933 2.8847 17.3585 2.61635C17.0566 2.54927 16.7715 2.48218 16.5031 2.41509C16.2683 2.31447 15.9665 2.21384 15.5975 2.11321C15.3291 2.11321 15.1279 1.94549 14.9937 1.61006L14.8931 1.0566C14.5577 0.654088 14.021 0.301887 13.283 0C12.2096 0.402516 11.3878 0.955975 10.8176 1.66038C10.2809 2.33124 9.71069 3.18658 9.10692 4.22642C8.90566 4.56184 8.68763 4.91405 8.45283 5.28302C8.25157 5.61845 8.01677 5.98742 7.74843 6.38994C7.413 6.89308 6.99371 7.63103 6.49057 8.60377C6.02097 9.57652 5.51782 10.6499 4.98113 11.8239C4.44444 12.9644 3.90776 14.1551 3.37107 15.3962C2.83438 16.6038 2.34801 17.7107 1.91195 18.717C1.50943 19.7233 1.174 20.5451 0.905661 21.1824C0.637317 21.8197 0.503145 22.1551 0.503145 22.1887C0.201258 22.8931 0.033543 23.7317 0 24.7044C0 25.6436 0.0838575 26.5828 0.251572 27.522C0.45283 28.4612 0.721174 29.3501 1.0566 30.1887C1.42558 30.9937 1.82809 31.631 2.26415 32.1006C2.86792 32.2013 3.30398 32.2516 3.57233 32.2516C4.14256 32.2516 4.59539 32.0671 4.93082 31.6981C5.26625 31.3627 5.71908 30.608 6.28931 29.434C6.35639 29.2327 6.38994 29.0147 6.38994 28.7799C6.42348 28.6122 6.44025 28.4444 6.44025 28.2767C6.4738 28.109 6.52411 27.9413 6.5912 27.7736C6.69182 27.6059 6.80923 27.4549 6.9434 27.3208C7.11111 27.153 7.26206 26.9853 7.39623 26.8176C7.63103 26.6499 7.78197 26.4151 7.84906 26.1132C7.71489 25.8784 7.68134 25.6268 7.74843 25.3585C7.91614 24.8553 8.16772 24.4025 8.50315 24C8.83857 23.5975 9.15723 23.2453 9.45912 22.9434C9.42558 22.5409 9.47589 22.0713 9.61006 21.5346C9.77778 20.9644 9.96226 20.4109 10.1635 19.8742C10.3648 19.3375 10.566 18.8679 10.7673 18.4654C10.9686 18.0294 11.1195 17.7442 11.2201 17.6101L11.6226 16.956L12.0252 17.7107C13.434 20.5618 15.5472 21.9874 18.3648 21.9874C19.4717 21.9874 20.5954 21.8029 21.7358 21.434C22.9099 21.065 24.0503 20.5954 25.1572 20.0252C26.2977 19.4214 27.3878 18.7841 28.4277 18.1132C29.4675 17.4088 30.4235 16.7379 31.2956 16.1006C31.3627 15.8994 31.4465 15.782 31.5472 15.7484C31.6813 15.7149 31.8155 15.6981 31.9497 15.6981L32.4025 16.2013C32.4025 16.5031 32.3187 16.7044 32.1509 16.805C31.0776 20.5283 30.5577 23.5975 30.5912 26.0126C30.6583 28.4277 31.3459 30.1216 32.6541 31.0943C33.0231 31.0943 33.3417 31.0273 33.6101 30.8931Z" fill="#D658B3"/>
</svg>
